<svg version="1.2" xmlns="http://www.w3.org/2000/svg" viewBox="0 0 1500 1000" width="1500" height="1000"><defs><linearGradient id="P" gradientUnits="userSpaceOnUse"/><linearGradient id="g1" x1="431.5" y1="265.9" x2="425.1" y2="283.9" href="#P"><stop stop-color="#89d6f1"/><stop offset="1" stop-color="#278bcb"/></linearGradient><linearGradient id="g2" x1="407.7" y1="264.7" x2="427.8" y2="264.7" href="#P"><stop stop-color="#154388"/><stop offset="1" stop-color="#3d78bc"/></linearGradient><linearGradient id="g3" x1="387.6" y1="264.7" x2="407.7" y2="264.7" href="#P"><stop stop-color="#154388"/><stop offset="1" stop-color="#202a62"/></linearGradient><linearGradient id="g4" x1="432.8" y1="329.9" x2="431.4" y2="559.6" href="#P"><stop stop-color="#3175ba" stop-opacity="0"/><stop offset=".8" stop-color="#3175ba"/></linearGradient><linearGradient id="g5" x1="398.4" y1="347" x2="394.1" y2="359.1" href="#P"><stop stop-color="#89d6f1"/><stop offset="1" stop-color="#278bcb"/></linearGradient><linearGradient id="g6" x1="381.6" y1="345" x2="395" y2="345" href="#P"><stop stop-color="#154388"/><stop offset="1" stop-color="#3d78bc"/></linearGradient><linearGradient id="g7" x1="368.1" y1="345" x2="381.6" y2="345" href="#P"><stop stop-color="#154388"/><stop offset="1" stop-color="#202a62"/></linearGradient><linearGradient id="g8" x1="399.4" y1="389.6" x2="398.4" y2="543.2" href="#P"><stop stop-color="#2a6ab4" stop-opacity="0"/><stop offset=".8" stop-color="#2b6cb5"/></linearGradient><linearGradient id="g9" x1="185.9" y1="562.3" x2="179.5" y2="580.4" href="#P"><stop stop-color="#89d6f1"/><stop offset="1" stop-color="#278bcb"/></linearGradient><linearGradient id="g10" x1="162.1" y1="561.1" x2="182.2" y2="561.1" href="#P"><stop stop-color="#154388"/><stop offset="1" stop-color="#3d78bc"/></linearGradient><linearGradient id="g11" x1="142" y1="561.1" x2="162.1" y2="561.1" href="#P"><stop stop-color="#154388"/><stop offset="1" stop-color="#202a62"/></linearGradient><linearGradient id="g12" x1="186.7" y1="607.2" x2="185.6" y2="777.4" href="#P"><stop stop-color="#184aa0" stop-opacity="0"/><stop offset=".8" stop-color="#184aa0"/></linearGradient><linearGradient id="g13" x1="471.3" y1="334.7" x2="467.3" y2="346.1" href="#P"><stop stop-color="#89d6f1"/><stop offset="1" stop-color="#278bcb"/></linearGradient><linearGradient id="g14" x1="455.3" y1="332.5" x2="467.9" y2="332.5" href="#P"><stop stop-color="#154388"/><stop offset="1" stop-color="#3d78bc"/></linearGradient><linearGradient id="g15" x1="442.7" y1="332.5" x2="455.3" y2="332.5" href="#P"><stop stop-color="#154388"/><stop offset="1" stop-color="#202a62"/></linearGradient><linearGradient id="g16" x1="472.2" y1="374.6" x2="471.3" y2="518.8" href="#P"><stop stop-color="#3175ba" stop-opacity="0"/><stop offset=".8" stop-color="#3175ba"/></linearGradient><linearGradient id="g17" x1="1007.2" y1="146.8" x2="1003.5" y2="676.4" href="#P"><stop offset="0" stop-color="#a3dce7" stop-opacity="0"/><stop offset="1" stop-color="#bbe4f1"/></linearGradient><linearGradient id="g18" x1="1016" y1="376.9" x2="932.3" y2="613.6" href="#P"><stop stop-color="#89d6f1"/><stop offset="1" stop-color="#278bcb"/></linearGradient><linearGradient id="g19" x1="737.9" y1="408.8" x2="1000.6" y2="408.8" href="#P"><stop stop-color="#154388"/><stop offset="1" stop-color="#3d78bc"/></linearGradient><linearGradient id="g20" x1="474" y1="408.8" x2="737.9" y2="408.8" href="#P"><stop stop-color="#154388"/><stop offset="1" stop-color="#202a62"/></linearGradient><linearGradient id="g21" x1="761.3" y1="218.5" x2="760.8" y2="279.7" href="#P"><stop offset="0" stop-color="#a3dce7" stop-opacity="0"/><stop offset="1" stop-color="#bbe4f1"/></linearGradient><linearGradient id="g22" x1="535.2" y1="348.9" x2="534.6" y2="410" href="#P"><stop offset="0" stop-color="#a3dce7" stop-opacity="0"/><stop offset="1" stop-color="#bbe4f1"/></linearGradient><linearGradient id="g23" x1="991.4" y1="348.9" x2="990.8" y2="410" href="#P"><stop offset="0" stop-color="#a3dce7" stop-opacity="0"/><stop offset="1" stop-color="#bbe4f1"/></linearGradient><linearGradient id="g24" x1="761.3" y1="476.6" x2="760.8" y2="537.8" href="#P"><stop offset="0" stop-color="#a3dce7" stop-opacity="0"/><stop offset="1" stop-color="#bbe4f1"/></linearGradient><linearGradient id="g25" x1="903.3" y1="335.7" x2="868.7" y2="543.8" href="#P"><stop stop-color="#ccebf8"/><stop offset="1" stop-color="#89d6f1"/></linearGradient><linearGradient id="g26" x1="585.7" y1="178.2" x2="779.2" y2="178.2" href="#P"><stop stop-color="#ccebf8"/><stop offset="1" stop-color="#89d6f1"/></linearGradient><linearGradient id="g27" x1="734.4" y1="634.8" x2="694.7" y2="692.5" href="#P"><stop stop-color="#154388"/><stop offset="1" stop-color="#3d78bc"/></linearGradient><linearGradient id="g28" x1="654.4" y1="606.3" x2="564.3" y2="621.7" href="#P"><stop offset=".2" stop-color="#154388"/><stop offset="1" stop-color="#3d78bc"/></linearGradient><linearGradient id="g29" x1="734.4" y1="716" x2="694.7" y2="773.7" href="#P"><stop stop-color="#154388"/><stop offset="1" stop-color="#3d78bc"/></linearGradient><linearGradient id="g30" x1="654.4" y1="687.6" x2="564.3" y2="702.9" href="#P"><stop offset=".2" stop-color="#154388"/><stop offset="1" stop-color="#3d78bc"/></linearGradient><linearGradient id="g31" x1="734.4" y1="797.3" x2="694.7" y2="855" href="#P"><stop stop-color="#154388"/><stop offset="1" stop-color="#3d78bc"/></linearGradient><linearGradient id="g32" x1="654.4" y1="768.8" x2="564.3" y2="784.1" href="#P"><stop offset=".2" stop-color="#154388"/><stop offset="1" stop-color="#3d78bc"/></linearGradient><linearGradient id="g33" x1="358.2" y1="409.8" x2="335" y2="475.6" href="#P"><stop stop-color="#89d6f1"/><stop offset="1" stop-color="#278bcb"/></linearGradient><linearGradient id="g34" x1="278.9" y1="415.8" x2="352" y2="415.8" href="#P"><stop stop-color="#154388"/><stop offset="1" stop-color="#3d78bc"/></linearGradient><linearGradient id="g35" x1="205.5" y1="415.8" x2="278.9" y2="415.8" href="#P"><stop stop-color="#154388"/><stop offset="1" stop-color="#202a62"/></linearGradient><linearGradient id="g36" x1="377.4" y1="267.2" x2="315.7" y2="441.8" href="#P"><stop offset="0" stop-color="#a3dce7" stop-opacity="0"/><stop offset="1" stop-color="#bbe4f1"/></linearGradient><linearGradient id="g37" x1="248.2" y1="716.8" x2="223.2" y2="716.3" href="#P"><stop stop-color="#154388"/><stop offset="1" stop-color="#3d78bc"/></linearGradient><linearGradient id="g38" x1="257.7" y1="717" x2="237.1" y2="716.6" href="#P"><stop stop-color="#154388"/><stop offset="1" stop-color="#3d78bc"/></linearGradient><linearGradient id="g39" x1="199.7" y1="814.5" x2="201.6" y2="558.1" href="#P"><stop stop-color="#184aa0"/><stop offset="1" stop-color="#184aa0" stop-opacity="0"/></linearGradient><linearGradient id="g40" x1="1098.6" y1="237.6" x2="1086.3" y2="272.4" href="#P"><stop stop-color="#89d6f1"/><stop offset="1" stop-color="#278bcb"/></linearGradient><linearGradient id="g41" x1="1055.3" y1="239" x2="1094" y2="239" href="#P"><stop stop-color="#154388"/><stop offset="1" stop-color="#3d78bc"/></linearGradient><linearGradient id="g42" x1="1016.5" y1="239" x2="1055.3" y2="239" href="#P"><stop stop-color="#154388"/><stop offset="1" stop-color="#202a62"/></linearGradient><linearGradient id="g43" x1="1108.7" y1="162.2" x2="1076.1" y2="254.6" href="#P"><stop offset="0" stop-color="#a3dce7" stop-opacity="0"/><stop offset="1" stop-color="#bbe4f1"/></linearGradient><linearGradient id="g44" x1="1009.1" y1="536.7" x2="1012.8" y2="288.7" href="#P"><stop stop-color="#278ecd"/><stop offset="1" stop-color="#239dd7" stop-opacity="0"/></linearGradient><linearGradient id="g45" x1="1367.5" y1="325.6" x2="1316.6" y2="469.4" href="#P"><stop stop-color="#89d6f1"/><stop offset="1" stop-color="#278bcb"/></linearGradient><linearGradient id="g46" x1="1197.4" y1="343.5" x2="1357" y2="343.5" href="#P"><stop stop-color="#154388"/><stop offset="1" stop-color="#3d78bc"/></linearGradient><linearGradient id="g47" x1="1037.1" y1="343.5" x2="1197.4" y2="343.5" href="#P"><stop stop-color="#154388"/><stop offset="1" stop-color="#202a62"/></linearGradient><linearGradient id="g48" x1="1089.9" y1="652.2" x2="1064.9" y2="651.7" href="#P"><stop stop-color="#154388"/><stop offset="1" stop-color="#3d78bc"/></linearGradient><linearGradient id="g49" x1="1099.4" y1="652.4" x2="1078.8" y2="652" href="#P"><stop stop-color="#154388"/><stop offset="1" stop-color="#3d78bc"/></linearGradient><linearGradient id="g50" x1="1125.2" y1="672.3" x2="1100.1" y2="671.8" href="#P"><stop stop-color="#154388"/><stop offset="1" stop-color="#3d78bc"/></linearGradient><linearGradient id="g51" x1="1134.6" y1="672.5" x2="1114" y2="672.1" href="#P"><stop stop-color="#154388"/><stop offset="1" stop-color="#3d78bc"/></linearGradient><linearGradient id="g52" x1="1358.7" y1="94.6" x2="1256.4" y2="383.7" href="#P"><stop offset="0" stop-color="#a3dce7" stop-opacity="0"/><stop offset="1" stop-color="#bbe4f1"/></linearGradient><linearGradient id="g53" x1="1141.3" y1="587.9" x2="1090.4" y2="731.7" href="#P"><stop stop-color="#89d6f1"/><stop offset="1" stop-color="#278bcb"/></linearGradient><linearGradient id="g54" x1="971.3" y1="605.8" x2="1130.9" y2="605.8" href="#P"><stop stop-color="#154388"/><stop offset="1" stop-color="#3d78bc"/></linearGradient><linearGradient id="g55" x1="811" y1="605.8" x2="971.3" y2="605.8" href="#P"><stop stop-color="#154388"/><stop offset="1" stop-color="#202a62"/></linearGradient><linearGradient id="g56" x1="1052.9" y1="584.1" x2="987.1" y2="717.8" href="#P"><stop stop-color="#ccebf8"/><stop offset="1" stop-color="#89d6f1"/></linearGradient><linearGradient id="g57" x1="1071.2" y1="456.9" x2="1065.7" y2="625.6" href="#P"><stop offset="0" stop-color="#a3dce7" stop-opacity="0"/><stop offset="1" stop-color="#bbe4f1"/></linearGradient><linearGradient id="g58" x1="529.7" y1="430.4" x2="530.2" y2="636.4" href="#P"><stop offset="0" stop-color="#a3dce7" stop-opacity="0"/><stop offset="1" stop-color="#bbe4f1"/></linearGradient><linearGradient id="g59" x1="534.4" y1="564.3" x2="501.7" y2="656.9" href="#P"><stop stop-color="#89d6f1"/><stop offset="1" stop-color="#278bcb"/></linearGradient><linearGradient id="g60" x1="424" y1="574.4" x2="526.7" y2="574.4" href="#P"><stop stop-color="#154388"/><stop offset="1" stop-color="#3d78bc"/></linearGradient><linearGradient id="g61" x1="320.7" y1="574.4" x2="424" y2="574.4" href="#P"><stop stop-color="#154388"/><stop offset="1" stop-color="#202a62"/></linearGradient><linearGradient id="g62" x1="225.6" y1="663.1" x2="220.5" y2="677.6" href="#P"><stop stop-color="#89d6f1"/><stop offset="1" stop-color="#278bcb"/></linearGradient><linearGradient id="g63" x1="206" y1="661.4" x2="222.1" y2="661.4" href="#P"><stop stop-color="#154388"/><stop offset="1" stop-color="#3d78bc"/></linearGradient><linearGradient id="g64" x1="189.9" y1="661.4" x2="206" y2="661.4" href="#P"><stop stop-color="#154388"/><stop offset="1" stop-color="#202a62"/></linearGradient><linearGradient id="g65" x1="226.2" y1="698.9" x2="225.4" y2="835" href="#P"><stop stop-color="#184aa0" stop-opacity="0"/><stop offset=".8" stop-color="#184aa0"/></linearGradient></defs><style>.a{fill:url(#g1)}.b{fill:url(#g2)}.c{fill:url(#g3)}.d{fill:url(#g4)}.e{fill:url(#g5)}.f{fill:url(#g6)}.g{fill:url(#g7)}.h{fill:url(#g8)}.i{fill:url(#g9)}.j{fill:url(#g10)}.k{fill:url(#g11)}.l{fill:url(#g12)}.m{fill:url(#g13)}.n{fill:url(#g14)}.o{fill:url(#g15)}.p{fill:url(#g16)}.q{opacity:.6;mix-blend-mode:overlay;fill:url(#g17)}.r{fill:url(#g18)}.s{fill:url(#g19)}.t{fill:url(#g20)}.u{fill:#ff65eb}.v{fill:#ff20ce}.w{opacity:.6;mix-blend-mode:overlay;fill:url(#g21)}.x{fill:#a5ffff}.y{opacity:.6;mix-blend-mode:overlay;fill:url(#g22)}.z{opacity:.6;mix-blend-mode:overlay;fill:url(#g23)}.A{opacity:.6;mix-blend-mode:overlay;fill:url(#g24)}.B{fill:url(#g25)}.C{fill:#193164}.D{fill:#1a6cbe}.E{fill:#102465}.F{fill:#00154f}.G{fill:url(#g26)}.H{fill:#1a9bdb}.I{fill:#103450}.J{fill:#ffc6a0}.K{fill:#fdf7fb}.L{fill:#fff}.M{fill:#00edf9}.N{opacity:.6;mix-blend-mode:overlay;fill:#00edf9}.O{opacity:.6;fill:#00edf9}.P{fill:url(#g27)}.Q{fill:url(#g28)}.R{fill:url(#g29)}.S{fill:url(#g30)}.T{fill:url(#g31)}.U{fill:url(#g32)}.V{opacity:.6;fill:#a5ffff}.W{fill:#b4ffff}.X{opacity:.8;fill:#b8ffff}.Y{fill:url(#g33)}.Z{fill:url(#g34)}.a0{fill:url(#g35)}.a1{opacity:.6;mix-blend-mode:overlay;fill:url(#g36)}.a2{fill:url(#g37)}.a3{fill:url(#g38)}.a4{fill:url(#g39)}.a5{fill:url(#g40)}.a6{fill:url(#g41)}.a7{fill:url(#g42)}.a8{opacity:.6;mix-blend-mode:overlay;fill:url(#g43)}.a9{fill:url(#g44)}.aa{fill:url(#g45)}.ab{fill:url(#g46)}.ac{fill:url(#g47)}.ad{fill:url(#g48)}.ae{fill:url(#g49)}.af{fill:url(#g50)}.ag{fill:url(#g51)}.ah{opacity:.6;mix-blend-mode:overlay;fill:url(#g52)}.ai{fill:url(#g53)}.aj{fill:url(#g54)}.ak{fill:url(#g55)}.al{fill:#162a56}.am{fill:url(#g56)}.an{fill:#165da4}.ao{opacity:.6;mix-blend-mode:overlay;fill:url(#g57)}.ap{opacity:.6;mix-blend-mode:overlay;fill:url(#g58)}.aq{fill:url(#g59)}.ar{fill:url(#g60)}.as{fill:url(#g61)}.at{opacity:.4;mix-blend-mode:multiply;fill:#1a9bdb}.au{fill:#011c63}.av{fill:#fcfefb}.aw{fill:url(#g62)}.ax{fill:url(#g63)}.ay{fill:url(#g64)}.az{fill:url(#g65)}</style><path class="a" d="m427.8 267.6l-20.1 11.7-20.1-11.7 20.1-11.6z"/><path class="b" d="m427.8 267.6v393.2l-20.1 11.7v-393.2z"/><path class="c" d="m407.7 279.3v393.2l-20.1-11.7v-393.2z"/><path class="d" d="m427.8 267.6v393.2l-20.1 11.7-20.1-11.7v-393.2l20.1-11.6z"/><path class="e" d="m395 347.9l-13.4 7.8-13.5-7.8 13.5-7.8z"/><path class="f" d="m395 347.9v263l-13.4 7.8v-263z"/><path class="g" d="m381.6 355.7v263l-13.5-7.8v-263z"/><path class="h" d="m395 347.9v263l-13.4 7.8-13.5-7.8v-263l13.5-7.8z"/><path class="i" d="m182.2 564l-20.1 11.7-20.1-11.7 20.1-11.6z"/><path class="j" d="m182.2 564v285.4l-20.1 11.6v-285.3z"/><path class="k" d="m162.1 575.7v285.3l-20.1-11.6v-285.4z"/><path class="l" d="m182.2 564v285.4l-20.1 11.6-20.1-11.6v-285.4l20.1-11.6z"/><path class="m" d="m467.9 335.5l-12.6 7.3-12.6-7.3 12.6-7.4z"/><path class="n" d="m467.9 335.5v246.8l-12.6 7.3v-246.8z"/><path class="o" d="m455.3 342.8v246.8l-12.6-7.3v-246.8z"/><path class="p" d="m467.9 335.5v246.8l-12.6 7.3-12.6-7.3v-246.8l12.6-7.4z"/><path class="q" d="m1000.6 86.4v577.7l-262.7 152.5-263.9-152.5v-577.7z"/><path class="r" d="m1000.6 411.7l-262.7 152.5-263.9-152.5 263.9-152.5z"/><path class="s" d="m1000.6 411.7v381.9l-262.7 152.5v-381.9z"/><path class="t" d="m737.9 564.2v381.9l-263.9-152.5v-381.9z"/><path class="u" d="m737.9 590.5l262.7-152.5v2.6l-262.7 152.5z"/><path class="v" d="m474 438l263.9 152.5v2.6l-263.9-152.5z"/><path class="w" d="m758.5 208l-9.1 74.2-11.1 6.4-11.1-6.4-10.4-74.2z"/><path class="x" d="m727.2 282.2l11.1-6.4 11.1 6.4-11.1 6.4z"/><path class="y" d="m532.3 338.3l-9.1 74.2-11.1 6.4-11.1-6.4-10.4-74.2z"/><path class="x" d="m501 412.5l11.1-6.4 11.1 6.4-11.1 6.4z"/><path class="z" d="m988.6 338.3l-9.2 74.2-11 6.4-11.1-6.4-10.4-74.2z"/><path class="x" d="m957.3 412.5l11-6.4 11.1 6.4-11 6.4z"/><path class="A" d="m758.5 466.1l-9.1 74.2-11.1 6.4-11.1-6.4-10.4-74.2z"/><path class="x" d="m727.2 540.3l11.1-6.4 11.1 6.4-11.1 6.4z"/><path class="B" d="m775.6 315c1.9-1.1 5-1.1 7 0l108.7 63.2c2 1.1 2 2.9 0 4.1l-183.8 106.1c-1.9 1.1-5.1 1.1-7 0l-108.8-63.2c-1.9-1.1-1.9-2.9 0.1-4.1z"/><path fill-rule="evenodd" class="C" d="m780.2 335.5c-0.5 0.2-1.2 0.2-1.7 0l-7.6-4.4c-0.4-0.3-0.4-0.7 0-1l7.7-4.4c0.4-0.3 1.2-0.3 1.7 0l7.5 4.4c0.5 0.3 0.5 0.7 0 1zm-10.9 6.3c-0.5 0.3-1.3 0.3-1.7 0l-7.6-4.4c-0.5-0.3-0.5-0.7 0-1l7.6-4.4c0.5-0.3 1.3-0.3 1.7 0l7.6 4.4c0.5 0.3 0.5 0.7 0 1zm-11 6.3c-0.5 0.3-1.2 0.3-1.7 0l-7.5-4.4c-0.5-0.3-0.5-0.7 0-1l7.6-4.4c0.5-0.2 1.2-0.2 1.7 0l7.5 4.5c0.5 0.2 0.5 0.6 0 0.9zm43.8 0c-0.4 0.3-1.2 0.3-1.6 0l-7.6-4.4c-0.5-0.3-0.5-0.7 0-1l7.6-4.4c0.5-0.2 1.2-0.2 1.7 0l7.6 4.4c0.4 0.3 0.4 0.7 0 1zm-30.5 4l-7.6-4.4c-0.5-0.3-0.5-0.7 0-1l7.6-4.4c0.5-0.3 1.3-0.2 1.7 0l7.6 4.4c0.5 0.3 0.5 0.7 0 1l-7.6 4.4c-0.5 0.3-1.3 0.3-1.7 0zm27.2-3c0.4 0.2 0.4 0.7-0.1 0.9l-7.6 4.5c-0.5 0.2-1.2 0.2-1.7 0l-7.6-4.5c-0.4-0.2-0.4-0.7 0-0.9l7.7-4.4c0.4-0.3 1.2-0.3 1.7 0zm-62.5 11.7c-0.5 0.3-1.2 0.3-1.7 0l-7.6-4.4c-0.4-0.3-0.4-0.7 0.1-1l7.6-4.4c0.5-0.3 1.2-0.3 1.7 0l7.6 4.4c0.4 0.3 0.4 0.7-0.1 1zm13.4 4l-7.6-4.4c-0.5-0.3-0.5-0.7 0-1l7.6-4.4c0.5-0.3 1.2-0.3 1.7 0l7.6 4.4c0.4 0.3 0.4 0.7 0 1l-7.7 4.4c-0.4 0.2-1.2 0.2-1.6 0zm-24.3 2.3c-0.5 0.3-1.2 0.3-1.7 0l-7.6-4.4c-0.5-0.3-0.4-0.7 0-1l7.7-4.4c0.4-0.2 1.2-0.2 1.6 0l7.6 4.4c0.5 0.3 0.5 0.7 0 1zm34.5-4.4c-0.4-0.3-0.4-0.7 0.1-1l7.6-4.4c0.5-0.3 1.2-0.3 1.7 0l7.6 4.4c0.4 0.3 0.4 0.7 0 1l-7.7 4.4c-0.4 0.3-1.2 0.3-1.7 0zm-21.1-1.4c0.4-0.2 1.2-0.2 1.6 0l7.6 4.4c0.5 0.3 0.5 0.7 0 1l-7.6 4.4c-0.5 0.3-1.2 0.3-1.7 0l-7.6-4.4c-0.4-0.3-0.4-0.7 0-1zm-24.3 12.2c-0.5 0.2-1.2 0.2-1.7 0l-7.6-4.4c-0.4-0.3-0.4-0.7 0-1l7.7-4.4c0.4-0.3 1.2-0.3 1.6 0l7.6 4.4c0.5 0.3 0.5 0.7 0 1zm34.6-4.5c-0.5-0.2-0.5-0.7 0-0.9l7.6-4.4c0.5-0.3 1.2-0.3 1.7 0l7.6 4.4c0.4 0.2 0.4 0.7 0 0.9l-7.7 4.5c-0.4 0.2-1.2 0.2-1.6 0zm76.9-1.4c0.5-0.3 1.2-0.3 1.7 0l2.3 1.3c0.4 0.3 0.4 0.7 0 1l-9.2 5.3c-0.4 0.2-1.2 0.2-1.6 0l-2.3-1.4c-0.5-0.2-0.5-0.7 0-0.9zm-98.2 0c0.5-0.3 1.3-0.3 1.7 0l7.6 4.4c0.5 0.2 0.5 0.7 0 0.9l-7.6 4.4c-0.5 0.3-1.2 0.3-1.7 0l-7.6-4.4c-0.4-0.2-0.5-0.7 0-0.9zm27.1 6.7c0.5 0.3 0.5 0.7 0 1l-7.6 4.4c-0.5 0.3-1.2 0.3-1.7 0l-7.6-4.4c-0.4-0.3-0.4-0.7 0-1l7.7-4.4c0.4-0.3 1.2-0.3 1.6 0zm-38.1-0.4c0.5-0.3 1.2-0.3 1.7 0l7.6 4.4c0.4 0.3 0.5 0.7 0 1l-7.6 4.4c-0.5 0.2-1.3 0.2-1.7 0l-7.6-4.4c-0.5-0.3-0.5-0.7 0-1zm43.6 10.8c-0.4 0.3-1.2 0.3-1.6 0l-7.6-4.4c-0.5-0.3-0.5-0.7 0-0.9l7.6-4.5c0.5-0.2 1.2-0.2 1.7 0l7.6 4.4c0.4 0.3 0.4 0.7 0 1zm-68 1.3c-0.5 0.3-1.2 0.3-1.7 0l-7.6-4.4c-0.4-0.3-0.4-0.7 0.1-1l7.6-4.4c0.4-0.2 1.2-0.2 1.6 0l7.6 4.4c0.5 0.3 0.5 0.7 0 1zm13.4-5.8c0.4-0.2 1.2-0.2 1.7 0l7.6 4.4c0.4 0.3 0.4 0.7-0.1 1l-7.6 4.4c-0.5 0.3-1.2 0.3-1.7 0l-7.6-4.4c-0.4-0.3-0.4-0.7 0-1zm34.4 6.5c-0.5-0.3-0.4-0.7 0-1l7.7-4.4c0.4-0.3 1.2-0.3 1.6 0l7.6 4.4c0.5 0.3 0.5 0.7 0 0.9l-7.6 4.5c-0.5 0.2-1.2 0.2-1.7 0zm-58.7 5.7c-0.5 0.2-1.2 0.2-1.7 0l-7.6-4.4c-0.4-0.3-0.4-0.7 0-1l7.7-4.4c0.4-0.3 1.2-0.3 1.6 0l7.6 4.4c0.5 0.3 0.5 0.7 0 1zm51.5-5.4c0.4 0.2 0.4 0.7 0 0.9l-7.7 4.5c-0.4 0.2-1.2 0.2-1.6 0l-7.6-4.5c-0.5-0.2-0.5-0.7 0-0.9l7.6-4.4c0.5-0.3 1.2-0.3 1.7 0zm-38.1-0.4c0.4-0.3 1.2-0.3 1.7 0l7.5 4.4c0.5 0.2 0.5 0.7 0 0.9l-7.6 4.4c-0.5 0.3-1.2 0.3-1.7 0l-7.6-4.4c-0.4-0.2-0.4-0.7 0-0.9zm89.8-1.2c0.4-0.3 1.2-0.3 1.6 0l7.6 4.4c0.5 0.2 0.5 0.7 0 0.9l-9.8 5.7c-0.5 0.3-1.3 0.3-1.7 0l-7.6-4.4c-0.5-0.2-0.5-0.7 0-0.9zm-62.6 7.9c0.4 0.3 0.4 0.7 0 1l-7.7 4.4c-0.4 0.3-1.2 0.3-1.6 0l-7.6-4.4c-0.5-0.3-0.5-0.7 0-1l7.6-4.4c0.5-0.3 1.2-0.3 1.7 0zm33 7.2c-0.5 0.3-1.2 0.3-1.7 0l-7.6-4.4c-0.4-0.3-0.4-0.7 0.1-1l7.6-4.4c0.5-0.2 1.2-0.3 1.7 0l7.5 4.4c0.5 0.3 0.5 0.7 0.1 1zm-71.2-7.6c0.5-0.3 1.3-0.3 1.7 0l7.6 4.4c0.5 0.3 0.5 0.7 0 1l-7.6 4.4c-0.5 0.2-1.3 0.2-1.7 0l-7.6-4.4c-0.5-0.3-0.5-0.7 0-1zm-24.4 12.1c-0.4 0.3-1.2 0.3-1.6 0l-7.6-4.4c-0.5-0.2-0.5-0.7 0-0.9l7.6-4.5c0.5-0.2 1.2-0.2 1.7 0l7.6 4.5c0.4 0.2 0.4 0.7 0 0.9zm51.4-5.4c0.5 0.3 0.5 0.7 0 1l-7.6 4.4c-0.5 0.3-1.2 0.3-1.7 0l-7.6-4.4c-0.4-0.3-0.4-0.7 0-1l7.7-4.4c0.4-0.2 1.2-0.2 1.6 0zm-38.1 9.4l-7.6-4.4c-0.4-0.3-0.4-0.7 0-1l7.6-4.4c0.5-0.3 1.3-0.3 1.7 0l7.6 4.4c0.5 0.3 0.5 0.7 0 1l-7.6 4.4c-0.5 0.3-1.2 0.3-1.7 0zm-24.3 2.3c-0.5 0.3-1.2 0.3-1.7 0l-7.6-4.4c-0.4-0.2-0.4-0.7 0.1-0.9l7.6-4.4c0.5-0.3 1.2-0.3 1.7 0l7.6 4.4c0.4 0.2 0.4 0.7-0.1 0.9zm51.5-5.3c0.4 0.2 0.4 0.7 0 0.9l-7.7 4.4c-0.4 0.3-1.2 0.3-1.6 0l-7.6-4.4c-0.5-0.2-0.5-0.7 0-0.9l7.6-4.5c0.5-0.2 1.2-0.2 1.7 0zm71.4-13c0.4-0.2 1.2-0.2 1.6 0l7.6 4.4c0.5 0.3 0.5 0.7 0 1l-60.2 34.8c-0.5 0.2-1.2 0.2-1.7 0l-7.6-4.4c-0.4-0.3-0.4-0.7 0.1-1zm-109.5 12.6c0.5-0.3 1.2-0.3 1.7 0l7.5 4.4c0.5 0.3 0.5 0.7 0 1l-7.6 4.4c-0.5 0.3-1.2 0.2-1.7 0l-7.5-4.4c-0.5-0.3-0.5-0.7 0-1zm10.2 7.7c-0.5-0.2-0.5-0.7 0-0.9l7.6-4.5c0.5-0.2 1.2-0.2 1.7 0l7.6 4.5c0.4 0.2 0.4 0.7 0 0.9l-7.7 4.4c-0.4 0.3-1.2 0.3-1.6 0zm5.9 5.4c0.4 0.3 0.4 0.7 0 1l-7.7 4.4c-0.4 0.3-1.2 0.3-1.6 0l-7.6-4.4c-0.5-0.3-0.5-0.7 0-1l7.6-4.4c0.5-0.3 1.2-0.3 1.7 0zm33 7.2c-0.5 0.3-1.2 0.3-1.7 0l-7.6-4.4c-0.4-0.3-0.4-0.7 0.1-1l7.6-4.4c0.5-0.3 1.2-0.3 1.6 0l7.6 4.4c0.5 0.3 0.5 0.7 0 1zm-86.1-11.6c0.5-0.3 1.2-0.3 1.7 0l7.6 4.4c0.4 0.3 0.4 0.7 0 1l-14.6 8.4c-0.4 0.2-1.2 0.2-1.6 0l-7.6-4.4c-0.5-0.3-0.5-0.7 0-1zm25.1 11.7c-0.4-0.2-0.4-0.7 0.1-1l7.6-4.4c0.4-0.2 1.2-0.2 1.6 0l7.6 4.5c0.5 0.2 0.5 0.7 0 0.9l-7.6 4.4c-0.5 0.3-1.2 0.3-1.7 0zm82.9-12.8c-0.4 0.3-1.2 0.3-1.6 0l-7.6-4.4c-0.5-0.3-0.5-0.7 0-0.9l7.6-4.5c0.5-0.2 1.2-0.2 1.7 0l7.6 4.4c0.4 0.3 0.4 0.8 0 1zm-104.1 11.4c0.5-0.2 1.2-0.2 1.7 0l7.6 4.5c0.4 0.2 0.4 0.7 0 0.9l-7.7 4.4c-0.4 0.3-1.2 0.3-1.7 0l-7.5-4.4c-0.5-0.2-0.5-0.7 0-0.9zm34.3 6.4c-0.4-0.3-0.4-0.7 0-1l7.7-4.4c0.4-0.3 1.2-0.3 1.6 0l7.6 4.4c0.5 0.3 0.5 0.7 0 1l-7.6 4.4c-0.5 0.2-1.2 0.3-1.7 0zm25.8 7.5c-0.5 0.3-1.2 0.3-1.7 0l-7.6-4.4c-0.5-0.3-0.4-0.7 0-1l7.7-4.4c0.4-0.2 1.1-0.2 1.6 0l7.6 4.4c0.5 0.3 0.5 0.7 0 1zm-42.3-11.6c0.5-0.3 1.2-0.3 1.7 0l7.6 4.4c0.4 0.3 0.4 0.7 0 1l-14.6 8.4c-0.4 0.2-1.2 0.2-1.7 0l-7.6-4.4c-0.4-0.3-0.4-0.7 0.1-1zm61 2.7c0.4-0.3 1.2-0.3 1.7 0l7.5 4.4c0.5 0.3 0.5 0.7 0 1l-9.8 5.7c-0.5 0.3-1.2 0.2-1.7 0l-7.6-4.4c-0.4-0.3-0.5-0.7 0-1zm-31.3 5.5c0.4-0.3 1.2-0.3 1.6 0l7.6 4.4c0.5 0.2 0.5 0.7 0 0.9l-22.4 13c-0.4 0.2-1.2 0.2-1.7 0l-7.5-4.4c-0.5-0.3-0.5-0.7 0-1zm7.1 8.5c0.5-0.2 1.2-0.2 1.7 0l7.6 4.4c0.4 0.3 0.4 0.7 0 1l-7.7 4.4c-0.4 0.3-1.2 0.3-1.7 0l-7.6-4.4c-0.4-0.3-0.4-0.7 0.1-1zm100.8-98c-0.5 0.2-1.3 0.2-1.7 0l-7.6-4.4c-0.5-0.3-0.5-0.7 0-1l14.6-8.4c0.4-0.3 1.2-0.3 1.6 0l7.6 4.4c0.5 0.3 0.5 0.7 0 1zm-37 8.7c-0.4 0.2-1.2 0.2-1.6 0l-7.6-4.5c-0.5-0.2-0.5-0.7 0-0.9l7.6-4.4c0.5-0.3 1.2-0.3 1.7 0l7.6 4.4c0.5 0.2 0.4 0.7 0 0.9zm13.3 4l-7.6-4.4c-0.4-0.2-0.4-0.7 0-0.9l7.7-4.5c0.4-0.2 1.2-0.2 1.6 0l7.6 4.5c0.5 0.2 0.5 0.7 0 0.9l-7.6 4.4c-0.5 0.3-1.2 0.3-1.7 0zm43.7 1.1c-0.5 0.2-1.2 0.3-1.7 0l-7.6-4.4c-0.4-0.3-0.4-0.7 0-1l16.4-9.4c0.5-0.3 1.2-0.3 1.7 0l7.6 4.4c0.4 0.2 0.4 0.7 0 0.9zm-33.5-3.1c-0.4-0.3-0.4-0.7 0-1l7.7-4.4c0.4-0.2 1.2-0.2 1.6 0l7.6 4.5c0.5 0.2 0.5 0.6 0 0.9l-7.6 4.4c-0.5 0.3-1.2 0.3-1.7 0zm22.5 9.5c-0.5 0.2-1.2 0.3-1.7 0l-7.6-4.4c-0.5-0.3-0.4-0.7 0-1l7.7-4.4c0.4-0.3 1.2-0.3 1.6 0l7.6 4.4c0.5 0.3 0.5 0.7 0 1zm29-14.9c0.5-0.2 1.2-0.2 1.7 0l7.6 4.4c0.4 0.3 0.4 0.7 0 1l-21.8 12.6c-0.5 0.2-1.2 0.2-1.7 0l-7.5-4.4c-0.5-0.3-0.5-0.7 0-1zm-40.1 21.2c-0.4 0.3-1.2 0.3-1.6 0l-7.6-4.4c-0.5-0.3-0.5-0.7 0-1l7.6-4.4c0.5-0.3 1.2-0.3 1.7 0l7.6 4.4c0.4 0.3 0.4 0.7 0 1zm38.3-7.5c0.5-0.3 1.2-0.3 1.7 0l2.2 1.3c0.5 0.3 0.5 0.7 0.1 1l-9.2 5.3c-0.4 0.2-1.2 0.2-1.7 0l-2.2-1.4c-0.5-0.2-0.5-0.6 0-0.9zm-7.4 10.2c0.4-0.2 1.2-0.2 1.7 0l2.2 1.3c0.5 0.3 0.5 0.7 0 1l-9.1 5.3c-0.5 0.2-1.2 0.2-1.7 0l-2.2-1.3c-0.5-0.3-0.5-0.7 0-1zm25.2-14.5c0.4-0.3 1.2-0.3 1.6 0l2.3 1.3c0.4 0.3 0.4 0.7 0 1l-9.1 5.2c-0.5 0.3-1.3 0.3-1.7 0l-2.3-1.3c-0.4-0.2-0.4-0.7 0-0.9zm-39.6 14.8c-0.5 0.3-1.3 0.3-1.7 0l-7.6-4.4c-0.4-0.3-0.4-0.7 0-1l7.7-4.4c0.4-0.2 1.2-0.2 1.7 0l7.5 4.4c0.5 0.3 0.5 0.7 0 1zm-27.5 3.2c-0.4 0.3-1.2 0.3-1.6 0l-7.6-4.4c-0.5-0.3-0.5-0.7 0-1l7.6-4.4c0.5-0.2 1.2-0.2 1.7 0l7.6 4.4c0.5 0.3 0.4 0.7 0 1zm-68 1.3c-0.5 0.3-1.2 0.3-1.7 0l-7.6-4.4c-0.4-0.3-0.4-0.7 0.1-1l7.6-4.4c0.5-0.2 1.2-0.2 1.7 0l7.6 4.4c0.4 0.3 0.4 0.7-0.1 1zm75.3-2.6c-0.5-0.2-0.5-0.7 0-0.9l7.6-4.5c0.5-0.2 1.2-0.2 1.7 0l7.5 4.4c0.5 0.3 0.5 0.7 0 1l-0.2 0.2-7.4 4.2c-0.4 0.3-1.2 0.3-1.7 0zm-34.7 3.6c0.4 0.3 0.4 0.7 0 1l-7.7 4.4c-0.4 0.2-1.2 0.2-1.6 0l-7.6-4.4c-0.5-0.3-0.5-0.7 0-1l7.6-4.4c0.5-0.3 1.2-0.3 1.7 0zm23.8 2.8c-0.5-0.3-0.5-0.7 0-1l7.6-4.4c0.5-0.3 1.2-0.3 1.7 0l7.5 4.4c0.5 0.3 0.5 0.7 0 1l-7.6 4.4c-0.5 0.2-1.2 0.2-1.7 0zm27.8-4.4c0.5-0.3 1.3-0.3 1.7 0l7.6 4.4c0.5 0.3 0.5 0.7 0 1l-7.6 4.3c-0.5 0.3-1.2 0.3-1.6 0l-7.6-4.4c-0.5-0.2-0.5-0.7 0-0.9zm-29.6 15.1c-0.4 0.3-1.2 0.3-1.7 0l-7.5-4.4c-0.5-0.3-0.5-0.7 0-1l7.6-4.4c0.5-0.3 1.2-0.3 1.7 0l7.6 4.4c0.4 0.3 0.4 0.7 0 1zm-36.8-1.2c-0.5-0.3-0.4-0.7 0-1l7.7-4.4c0.4-0.2 1.2-0.3 1.6 0l7.6 4.4c0.5 0.3 0.5 0.7 0 1l-7.6 4.4c-0.5 0.3-1.2 0.3-1.7 0zm-58.7 5.7c-0.5 0.3-1.2 0.3-1.7 0l-7.6-4.4c-0.4-0.3-0.4-0.7 0-1l7.7-4.4c0.4-0.2 1.2-0.2 1.6 0l7.6 4.4c0.5 0.3 0.5 0.7 0 1zm47.8 0.6c-0.5-0.2-0.5-0.7 0-0.9l7.6-4.4c0.5-0.3 1.2-0.3 1.7 0l7.5 4.4c0.5 0.2 0.5 0.7 0 0.9l-7.6 4.4c-0.5 0.3-1.2 0.3-1.7 0zm25.8 7.6c-0.5 0.2-1.2 0.2-1.7 0l-7.6-4.4c-0.4-0.3-0.4-0.7 0-1l7.7-4.4c0.4-0.3 1.2-0.3 1.6 0l7.6 4.4c0.5 0.3 0.5 0.7 0 1zm-36.7-1.2c-0.5-0.3-0.5-0.7 0-1l7.6-4.4c0.5-0.3 1.2-0.3 1.7 0l7.6 4.4c0.4 0.3 0.4 0.7 0 1l-7.7 4.4c-0.4 0.2-1.2 0.3-1.6 0zm-11 6.3c-0.5-0.3-0.5-0.7 0-0.9l7.6-4.5c0.5-0.2 1.2-0.2 1.7 0l7.6 4.4c0.4 0.3 0.4 0.7 0 1l-7.7 4.4c-0.4 0.3-1.2 0.3-1.7 0zm-58.7 5.7c-0.4 0.3-1.2 0.3-1.6 0l-7.6-4.4c-0.5-0.2-0.5-0.7 0-0.9l7.6-4.5c0.5-0.2 1.2-0.2 1.7 0l7.6 4.5c0.4 0.2 0.4 0.7 0 0.9zm84.4 1.8c-0.4 0.3-1.2 0.3-1.6 0l-7.6-4.4c-0.5-0.2-0.5-0.7 0-0.9l7.6-4.4c0.5-0.3 1.2-0.3 1.7 0l7.6 4.4c0.4 0.2 0.4 0.7 0 0.9zm-71.2 2.2l-7.6-4.4c-0.5-0.2-0.5-0.7 0-1l7.6-4.4c0.5-0.2 1.3-0.2 1.7 0l7.6 4.4c0.5 0.3 0.5 0.8 0 1l-7.6 4.4c-0.5 0.3-1.3 0.3-1.7 0zm34.4-3.3c-0.5-0.3-0.4-0.7 0-1l7.7-4.4c0.4-0.3 1.2-0.3 1.6 0l7.6 4.4c0.5 0.3 0.5 0.7 0 1l-7.6 4.4c-0.5 0.2-1.2 0.2-1.7 0zm-53 5.3c-0.5-0.3-0.5-0.7 0-1l7.6-4.4c0.5-0.3 1.3-0.3 1.7 0l7.6 4.4c0.5 0.3 0.5 0.7 0 1l-7.6 4.4c-0.5 0.2-1.3 0.2-1.7 0zm51.2 5.4c-0.4 0.3-1.1 0.3-1.6 0l-7.6-4.4c-0.5-0.3-0.4-0.7 0-0.9l7.7-4.5c0.4-0.2 1.2-0.2 1.6 0l7.6 4.4c0.5 0.3 0.5 0.7 0 1zm7.2-1.3c-0.4-0.2-0.4-0.7 0-0.9l7.7-4.4c0.5-0.3 1.2-0.3 1.7 0l7.5 4.4c0.5 0.2 0.5 0.7 0 0.9l-7.6 4.4c-0.5 0.3-1.2 0.3-1.7 0zm-30.8 4.2c0.5-0.2 1.2-0.2 1.7 0l7.5 4.4c0.5 0.3 0.5 0.7 0 1l-16.8 9.7c-0.4 0.3-1.2 0.3-1.7 0l-7.5-4.4c-0.5-0.3-0.5-0.7 0-1zm34.6 5.3c0.5-0.2 1.2-0.2 1.7 0l7.6 4.4c0.4 0.3 0.4 0.7 0 1l-7.7 4.4c-0.4 0.3-1.2 0.3-1.7 0l-7.5-4.4c-0.5-0.3-0.5-0.7 0-1zm64.4-21.5c1-0.6 2.5-0.6 3.5 0l22.8 13.2c1 0.6 1 1.5 0 2l-41 23.6c-0.9 0.6-2.5 0.6-3.4 0l-22.9-13.2c-0.9-0.6-0.9-1.5 0-2.1zm-86.4 34.3c0.5-0.3 1.2-0.3 1.7 0l7.6 4.4c0.4 0.3 0.4 0.7 0 1l-7.7 4.4c-0.4 0.3-1.2 0.3-1.6 0l-7.6-4.4c-0.5-0.3-0.5-0.7 0-1z"/><path class="D" d="m775.5 184.4c2.9-1.7 5.2-0.3 5.2 3l0.4 127.8-190.8 110.2-0.4-127.8c0-3.4 2.4-7.4 5.3-9.1z"/><path class="D" d="m892.8 388.3c0 0.7-0.5 1.4-1.5 2l-183.8 106.1c-1.9 1.2-5 1.2-7 0l-108.7-63.2q-0.1 0-0.1 0-0.1-0.1-0.2-0.2-0.2-0.1-0.4-0.3 0 0 0 0-0.2-0.1-0.3-0.3-0.1 0-0.1-0.1 0 0 0-0.1-0.1 0-0.1-0.1-0.1-0.1-0.2-0.3 0 0 0 0 0 0 0-0.1 0-0.1 0-0.2-0.1-0.1-0.1-0.2 0-0.1 0-0.1v-8q0 0.2 0.1 0.5 0 0 0 0 0.1 0.3 0.2 0.5 0.1 0 0.1 0.1 0.1 0.2 0.4 0.4 0.1 0.1 0.3 0.3 0.2 0.1 0.3 0.2l108.8 63.2c1.9 1.1 5.1 1.1 7 0l183.8-106.1c1-0.6 1.5-1.3 1.5-2.1z"/><path class="E" d="m772 196.5l0.3 113.7-173.3 100.1-0.3-113.8z"/><path class="F" d="m598.7 300.1v-3.6l173.3-100v3.6z"/><path class="G" d="m776.4 184q-0.4 0.1-0.9 0.4l-180.3 104.1q-0.6 0.3-1 0.7-0.2 0.1-0.3 0.3-0.4 0.3-0.7 0.6-0.1 0.1-0.2 0.2-0.4 0.4-0.7 0.9-0.1 0-0.1 0.1-0.4 0.5-0.7 1.1-0.1 0-0.1 0-0.3 0.6-0.6 1.3 0 0 0 0-0.3 0.6-0.5 1.2 0 0.1 0 0.1-0.2 0.6-0.2 1.2-0.1 0.1-0.1 0.2-0.1 0.6-0.1 1.2l0.4 127.8-1.2-0.8c-1.9-1.1-3-3.1-3.1-5.2l-0.3-124.4q0-0.5 0.1-1 0-0.1 0-0.2 0-0.1 0-0.1 0.1-0.2 0.1-0.4 0-0.3 0.1-0.6 0.1-0.1 0.1-0.2 0 0 0-0.1 0.1-0.1 0.1-0.2 0.1-0.3 0.2-0.5 0.1-0.3 0.2-0.5 0 0 0 0 0 0 0-0.1 0.1-0.2 0.2-0.4 0.1-0.2 0.2-0.4 0.1-0.2 0.2-0.4 0 0 0 0 0 0 0-0.1 0.2-0.2 0.3-0.4 0.2-0.2 0.3-0.5 0.1 0 0.2-0.1 0-0.1 0-0.1 0.1-0.1 0.2-0.2 0.2-0.3 0.4-0.5 0.1-0.2 0.2-0.3 0.1-0.1 0.2-0.1 0.1-0.2 0.2-0.3 0.2-0.2 0.4-0.4 0.2-0.1 0.3-0.2 0.5-0.4 1-0.7l180.4-104.1q0.3-0.2 0.7-0.4 0.1 0 0.2-0.1 0.1 0 0.2 0 0.1-0.1 0.2-0.1 0.2-0.1 0.5-0.1 0.1 0 0.2 0 0 0 0 0 0.1 0 0.2 0 0.1-0.1 0.3 0 0.2 0 0.3 0 0.1 0 0.1 0 0 0 0 0 0.1 0 0.2 0.1 0.2 0 0.3 0.1 0.1 0 0.3 0.1 0 0 0 0l4.2 2.5q-0.3-0.2-0.7-0.3-0.1 0-0.1 0-0.4 0-0.8 0-0.1 0-0.1 0-0.4 0-0.9 0.2-0.1 0-0.2 0.1z"/><path class="H" d="m871.8 441.1c-6 3.4-15.6 3.4-21.6 0-6-3.5-6-9.1-0.1-12.5 6-3.5 15.6-3.5 21.6 0 6 3.4 6 9 0.1 12.5z"/><path class="I" d="m855.4 438.8c0 0-5.4-3.5-5.5-4.3-0.1-0.9 1.2-1.8 2.1-1.8 0.9 0.1 4.7 0.4 4.7 0.4l1.2 1.4c0 0 2.2 5.2-2.5 4.3z"/><path class="I" d="m867.3 434.4c0 0-5.4-3.5-5.6-4.3-0.1-0.9 1.2-1.8 2.1-1.8 0.9 0.1 4.7 0.4 4.7 0.4l1.3 1.4c0 0 2.1 5.2-2.5 4.3z"/><path class="I" d="m873 386.6l-2.8 42.6c-2.4 2.4-5.5 0.6-5.5 0.6 0 0-0.7-35.9-0.8-35.1 0 1-5.1 39.4-5.1 39.4-2.8 1.6-5.3 0.1-5.3 0.1l0.2-44.5z"/><path class="J" d="m874 363.7c0.5 1.7 2.5 8.5 2.5 9.6 0.2 4.7-5.9 8-5.9 8l-0.3-7.9c1.5-1.6 1.7-8.6 3.7-9.7z"/><path class="K" d="m865.8 354.8c0 0 3.1-0.2 4.5 0.2 0 0 1.7 4.8 2.3 10.9 0.6 6.2 0.8 20.2 0.8 20.2 0 0-1.7 2.7-8.1 4.4-7.8 2-11.6-0.8-11.6-0.8l-0.8-30.3c2.9-2.4 5.2-2.9 5.2-2.9z"/><path class="J" d="m864.9 355.4c-3.8 1-5-0.2-5-0.2l-0.3-2c-2.7 0.1-2.5-0.9-2.7-2.7-0.2-1.9-0.1-7 0-8.4 0.1-1.5 1.3-1.9 4.3-1.4 3 0.6 3.3 6.2 3.3 6.2 0.3-0.5 1.8-1.6 2.1 0.1 0.2 1.6-1.3 1.7-1.3 1.7l-0.1 5.9z"/><path class="L" d="m858.1 356.5c0-1.2 0.2-1.8 2.9-2.1 2.7-0.3 4.9-1 5.1 0 0.3 1-0.2 1.7-2.9 1.9-2.7 0.2-5.1 0.2-5.1 0.2z"/><path class="I" d="m861.6 347.1c0.2-0.4 0-1-0.5-1.2-0.4-0.1-0.7 0.1-1 0.5-0.5 0.5-0.7 1.4-1 2q-0.4-0.4-0.8-0.7 0-0.3 0-0.5c0-0.5 0.1-0.9 0-1.4-0.3-0.9-1.2-1-1.7-1.7-0.6-0.9-0.3-2.2 0.3-3.1 0.6-0.9 1.6-1.5 2.6-1.8 3.6-1.2 8.9 1.4 7.8 5.8-0.6 2.4-1.4 4.8-2.1 7.3-0.1 0.3-0.8 0.5-1.1 0.4-0.3-0.1-0.6-0.4-0.8-0.6-1.2-1.1-2.2-2.3-2.9-3.7 0.1 0.1 1.2-1.1 1.2-1.3z"/><path class="J" d="m852.9 389c-0.2-0.5-0.5-0.9-0.6-1.4-0.2-1.1 0.8-2.4 2-1.7 0.3 0.2 0.5 0.4 0.7 0.7 0.3 0.4 0.7 0.8 0.6 1.3-0.2 0.4-0.6 0.7-0.6 1.1 0 0.2 0.2 0.4 0.2 0.6 0 0.3-0.1 0.5-0.2 0.7q-0.2 0.4-0.4 0.7c-0.2 0.4-0.4 0.9-0.9 0.9-0.4 0-0.6-0.4-0.7-0.8-0.1-0.7 0.1-1.4-0.1-2.1z"/><path class="J" d="m852.9 388.8c0 0-6.6-10.2-6.8-12.4-0.2-2.3 5.4-14.2 5.4-14.2l4.4 4.9-4.9 8.8 2.8 9.8z"/><path class="K" d="m847.9 368.7c1.8-4.6 3.7-8.7 5-9.3 0 0 3.2 4.3 2.7 9.3-0.1 1.1-0.5 2.4-1.1 3.7q-3.4-1.7-6.6-3.7z"/><path class="K" d="m870.8 367.7l-0.5-12.7c1.1 0.4 3.3 5.2 5 10.1-1.5 0.8-3.1 1.6-4.5 2.6z"/><path class="M" d="m625.7 302.4c0 3.2-2.3 7.2-5.1 8.9-2.9 1.6-5.2 0.3-5.2-3 0-3.2 2.3-7.2 5.1-8.9 2.9-1.6 5.2-0.3 5.2 3z"/><path class="K" d="m683.3 266v0.3c0 0.6-0.5 1.5-1.1 1.8l-50.9 29.4c-0.6 0.4-1.1 0.1-1.1-0.6v-0.2c0-0.7 0.5-1.5 1.1-1.9l50.9-29.4c0.6-0.3 1.1 0 1.1 0.6z"/><path class="K" d="m645 295v0.2c0 0.7-0.5 1.5-1.1 1.9l-12.6 7.2c-0.6 0.4-1.1 0.1-1.1-0.6v-0.2c0-0.7 0.5-1.5 1.1-1.9l12.6-7.3c0.6-0.3 1.1 0 1.1 0.7z"/><path class="K" d="m683.3 273c0 0.7-0.5 1.6-1.2 2l-33.5 19.4c-0.7 0.3-1.2 0-1.2-0.7 0-0.8 0.5-1.7 1.2-2.1l33.5-19.3c0.7-0.4 1.2-0.1 1.2 0.7z"/><path class="K" d="m639.4 305.1c0 0.8-0.6 1.7-1.2 2.1l-6.8 3.9c-0.7 0.4-1.2 0.1-1.2-0.7 0-0.7 0.5-1.6 1.2-2l6.8-3.9c0.6-0.4 1.2-0.1 1.2 0.6z"/><path class="M" d="m625.8 329.2c0 3.2-2.3 7.2-5.1 8.9-2.9 1.6-5.2 0.3-5.2-3 0-3.2 2.3-7.2 5.1-8.9 2.9-1.6 5.2-0.3 5.2 3z"/><path class="K" d="m683.3 292.9v0.2c0.1 0.6-0.4 1.5-1 1.9l-50.9 29.3c-0.6 0.4-1.1 0.1-1.1-0.6v-0.2c0-0.7 0.4-1.5 1-1.9l50.9-29.4c0.7-0.3 1.1 0 1.1 0.7z"/><path class="K" d="m645.1 321.8v0.2c0 0.7-0.5 1.5-1.1 1.9l-12.6 7.2c-0.6 0.4-1.1 0.1-1.1-0.6v-0.2c0-0.7 0.5-1.5 1.1-1.9l12.6-7.3c0.6-0.3 1.1 0 1.1 0.7z"/><path class="K" d="m683.4 299.8c0 0.7-0.6 1.6-1.2 2l-33.5 19.4c-0.7 0.3-1.2 0-1.2-0.7 0-0.8 0.5-1.7 1.2-2.1l33.5-19.3c0.6-0.4 1.2-0.1 1.2 0.7z"/><path class="K" d="m639.4 331.9c0 0.8-0.5 1.7-1.1 2.1l-6.8 3.9c-0.7 0.4-1.2 0.1-1.2-0.7 0-0.7 0.5-1.6 1.2-2l6.8-3.9c0.6-0.4 1.1-0.1 1.1 0.6z"/><path class="M" d="m625.9 356c0 3.2-2.3 7.2-5.2 8.9-2.8 1.6-5.1 0.3-5.1-3 0-3.2 2.3-7.2 5.1-8.9 2.8-1.6 5.2-0.3 5.2 3z"/><path class="K" d="m683.4 319.7v0.2c0 0.6-0.5 1.5-1.1 1.9l-50.9 29.3c-0.6 0.4-1.1 0.1-1.1-0.6v-0.2c0-0.7 0.5-1.5 1.1-1.9l50.9-29.4c0.6-0.3 1.1 0 1.1 0.7z"/><path class="K" d="m645.1 348.6v0.2c0 0.7-0.4 1.5-1.1 1.9l-12.5 7.2c-0.7 0.4-1.1 0.1-1.2-0.6v-0.2c0-0.7 0.5-1.5 1.1-1.9l12.6-7.3c0.6-0.3 1.1 0 1.1 0.7z"/><path class="K" d="m683.4 326.6c0 0.7-0.5 1.6-1.1 2l-33.6 19.4c-0.6 0.3-1.2 0-1.2-0.7 0-0.8 0.6-1.7 1.2-2.1l33.6-19.3c0.6-0.4 1.1-0.1 1.1 0.7z"/><path class="K" d="m639.5 358.7c0 0.8-0.5 1.7-1.2 2.1l-6.7 3.9c-0.7 0.4-1.2 0.1-1.2-0.7 0-0.7 0.5-1.6 1.2-2l6.7-3.9c0.7-0.4 1.2-0.1 1.2 0.6z"/><path class="M" d="m759.2 256l-9.5 5.5c-0.1-13.3-9.5-18.6-21-12v-10.9c16.8-9.7 30.5-1.9 30.5 17.4z"/><path class="K" d="m728.7 249.5c-11.5 6.7-20.9 22.9-20.8 36.1 0 6.6 2.4 11.3 6.1 13.4l-6.7 11.7c-5.5-3.1-8.9-9.9-9-19.6 0-19.3 13.6-42.8 30.4-52.5z"/><path class="v" d="m728.9 308.5c-8.4 4.9-16.1 5.3-21.6 2.2l6.7-11.7c3.8 2.2 9.1 1.9 14.8-1.4 11.6-6.7 20.9-22.9 20.9-36.1l9.5-5.5c0.1 19.3-13.5 42.8-30.3 52.5z"/><path class="K" d="m684.1 346.5v0.2c0 0.7-0.5 1.5-1.1 1.9l-55.4 32c-0.6 0.3-1.1 0-1.1-0.7v-0.2c0-0.7 0.5-1.5 1.1-1.9l55.3-31.9c0.7-0.4 1.2-0.1 1.2 0.6z"/><path class="v" d="m620 383.5v0.2c0 0.7-0.5 1.5-1.1 1.9l-2.2 1.2c-0.6 0.4-1.1 0.1-1.1-0.6v-0.2c0-0.7 0.5-1.6 1.1-1.9l2.2-1.2c0.6-0.4 1.1-0.1 1.1 0.6z"/><path class="K" d="m757.7 304v0.2c0 0.7-0.5 1.5-1.1 1.9l-55.4 31.9c-0.6 0.4-1.1 0.1-1.1-0.6v-0.2c0-0.7 0.5-1.5 1.1-1.9l55.4-32c0.6-0.3 1.1 0 1.1 0.7z"/><path class="v" d="m693.6 341v0.2c0 0.7-0.5 1.5-1.1 1.9l-2.1 1.2c-0.6 0.4-1.1 0.1-1.1-0.6v-0.2c0-0.7 0.5-1.6 1.1-1.9l2.1-1.2c0.6-0.4 1.1-0.1 1.1 0.6z"/><path fill-rule="evenodd" class="N" d="m644.3 161.8l0.1 54.2c0 1.2-0.8 2.7-1.9 3.3l-77.6 44.8c-1 0.6-1.9 0.1-1.9-1.1l-0.1-54.2c0-1.2 0.8-2.7 1.9-3.3l77.6-44.8c1-0.6 1.9-0.1 1.9 1.1zm-26.6 30.9c-2.3 1.3-4.1 4.5-4.1 7 0 1 0.3 1.8 0.7 2.3l-9.3 19.9q-0.6 0.2-1.3 0.6c-0.7 0.3-1.3 0.8-1.8 1.4l-8.7-5.3c0.3-0.8 0.5-1.6 0.5-2.4 0-2.6-1.9-3.7-4.1-2.4-2.3 1.3-4.1 4.5-4.1 7.1q0 1.2 0.5 1.9l-8.6 15.3q-0.9 0-1.8 0.6c-2.3 1.3-4.1 4.5-4.1 7 0 2.6 1.8 3.7 4.1 2.4 2.3-1.3 4.1-4.5 4.1-7.1q0-1.2-0.5-1.9l8.6-15.3q0.9 0 1.8-0.6c0.6-0.3 1.2-0.9 1.8-1.5l8.7 5.4c-0.3 0.8-0.5 1.6-0.5 2.4 0 2.6 1.9 3.7 4.1 2.4 2.3-1.3 4.1-4.5 4.1-7.1 0-1-0.3-1.8-0.8-2.3l9.4-19.9q0.6-0.1 1.3-0.5c2.3-1.3 4.1-4.5 4.1-7.1q0-0.3-0.1-0.6l7.1-8c0.7 0.4 1.8 0.4 2.9-0.3 2.3-1.3 4.1-4.5 4.1-7.1 0-2.6-1.8-3.6-4.1-2.3-2.3 1.3-4.1 4.5-4.1 7.1q0 0.3 0.1 0.6l-7.1 8c-0.7-0.4-1.8-0.4-2.9 0.3z"/><path class="x" d="m635.8 179c0 2.6-1.8 5.8-4.1 7.1-1.1 0.7-2.2 0.7-2.9 0.3l-7.1 8q0.1 0.3 0.1 0.6c0 2.6-1.8 5.8-4.1 7.1q-0.7 0.4-1.3 0.5l-9.4 19.9c0.5 0.5 0.8 1.3 0.8 2.3 0 2.6-1.8 5.8-4.1 7.1-2.2 1.3-4.1 0.2-4.1-2.4 0-0.8 0.2-1.6 0.5-2.4l-8.7-5.4c-0.6 0.6-1.2 1.2-1.8 1.5q-0.9 0.6-1.8 0.6l-8.6 15.3q0.5 0.7 0.5 1.9c0 2.6-1.8 5.8-4.1 7.1-2.3 1.3-4.1 0.2-4.1-2.4 0-2.5 1.8-5.7 4.1-7q0.9-0.6 1.8-0.6l8.6-15.3q-0.5-0.7-0.5-1.9c0-2.6 1.8-5.8 4.1-7.1 2.2-1.3 4.1-0.2 4.1 2.4 0 0.8-0.2 1.6-0.5 2.4l8.7 5.3c0.5-0.6 1.1-1.1 1.8-1.4q0.7-0.4 1.3-0.6l9.3-19.9c-0.4-0.5-0.7-1.3-0.7-2.3 0-2.5 1.8-5.7 4.1-7 1.1-0.7 2.2-0.7 2.9-0.3l7.1-8q-0.1-0.3-0.1-0.6c0-2.6 1.8-5.8 4.1-7.1 2.3-1.3 4.1-0.3 4.1 2.3z"/><path fill-rule="evenodd" class="O" d="m571.6 274.4l0.1 22.3c0 0.9-0.6 2-1.4 2.4l-45.8 26.5c-0.8 0.4-1.4 0.1-1.4-0.8l-0.1-22.3c0-0.9 0.6-2 1.4-2.4l45.8-26.5c0.8-0.4 1.4-0.1 1.4 0.8zm-27 34.8c0.3-0.2 0.6-0.6 0.6-1 0-0.4-0.3-0.6-0.6-0.4l-2.6 1.5c-0.3 0.2-0.6 0.7-0.6 1.1 0 0.4 0.3 0.5 0.6 0.3zm14.7-13.4c0.3-0.2 0.6-0.6 0.6-1 0-0.4-0.3-0.6-0.7-0.4l-22.4 13c-0.3 0.2-0.6 0.6-0.6 1 0 0.4 0.3 0.6 0.6 0.4zm-9.8 0.7c0.3-0.2 0.6-0.6 0.6-1 0-0.4-0.3-0.6-0.6-0.4l-12.6 7.3c-0.4 0.2-0.6 0.7-0.6 1.1 0 0.3 0.2 0.5 0.6 0.3zm8.8-10c0.3-0.2 0.6-0.7 0.6-1 0-0.4-0.3-0.6-0.6-0.4l-21.4 12.4c-0.4 0.1-0.6 0.6-0.6 1 0 0.4 0.2 0.6 0.6 0.4zm8.4 0c0.3-0.2 0.6-0.6 0.6-1 0-0.4-0.3-0.6-0.6-0.4l-10.3 5.9c-0.3 0.2-0.6 0.7-0.6 1.1 0 0.4 0.3 0.5 0.6 0.4zm-13 7.5c0.4-0.2 0.6-0.7 0.6-1.1 0-0.4-0.3-0.5-0.6-0.3l-1.6 0.9c-0.3 0.2-0.6 0.6-0.6 1 0 0.4 0.3 0.6 0.6 0.4zm13-12.5c0.4-0.2 0.7-0.6 0.7-1 0-0.4-0.3-0.6-0.7-0.4l-5.7 3.3c-0.3 0.2-0.6 0.7-0.6 1.1 0 0.4 0.3 0.5 0.6 0.4zm-35.9 20.5c0-1.1-0.8-1.6-1.8-1-1 0.6-1.8 1.9-1.8 3.1 0 1.1 0.8 1.6 1.8 1 1-0.6 1.8-2 1.8-3.1zm8.7 9.9c0.4-0.2 0.6-0.6 0.6-1 0-0.4-0.2-0.6-0.6-0.4l-2.6 1.5c-0.3 0.2-0.6 0.7-0.6 1.1 0 0.4 0.3 0.5 0.6 0.3z"/><path class="x" d="m558.8 285.5c0 0.4-0.3 0.9-0.6 1.1l-21.4 12.3c-0.4 0.2-0.6 0.1-0.6-0.3 0-0.4 0.2-0.9 0.6-1.1l21.4-12.3c0.3-0.2 0.6-0.1 0.6 0.3z"/><path class="x" d="m550 295.5c0 0.4-0.3 0.9-0.6 1.1l-12.6 7.3c-0.3 0.2-0.6 0-0.6-0.4 0-0.4 0.3-0.8 0.6-1l12.6-7.3c0.3-0.2 0.6 0 0.6 0.3z"/><path class="x" d="m559.9 294.8c0 0.4-0.3 0.8-0.7 1l-22.4 13c-0.3 0.2-0.6 0-0.6-0.4 0-0.4 0.3-0.8 0.6-1l22.4-13c0.4-0.2 0.6 0 0.7 0.4z"/><path class="x" d="m540 311.2c0 0.4-0.3 0.8-0.6 1l-2.6 1.5c-0.3 0.2-0.6 0.1-0.6-0.3 0-0.4 0.3-0.9 0.6-1.1l2.6-1.5c0.3-0.2 0.6 0 0.6 0.4z"/><path class="x" d="m554.2 293.1c0 0.4-0.3 0.9-0.6 1.1l-1.6 0.9c-0.3 0.2-0.6 0-0.6-0.4 0-0.4 0.3-0.8 0.6-1l1.6-0.9c0.3-0.2 0.6-0.1 0.6 0.3z"/><path class="x" d="m567.2 285.6c0 0.4-0.3 0.9-0.6 1.1l-10.3 5.9c-0.3 0.2-0.6 0-0.6-0.4 0-0.3 0.3-0.8 0.6-1l10.3-5.9c0.3-0.2 0.6-0.1 0.6 0.3z"/><path class="x" d="m567.2 280.7c0 0.4-0.3 0.8-0.6 1l-5.8 3.4c-0.3 0.1-0.6 0-0.6-0.4 0-0.4 0.3-0.9 0.6-1.1l5.8-3.3c0.3-0.2 0.6 0 0.6 0.4z"/><path class="x" d="m530.6 302.3c0 1.1-0.8 2.5-1.7 3.1-1 0.6-1.8 0.1-1.8-1 0-1.2 0.8-2.6 1.7-3.1 1-0.6 1.8-0.1 1.8 1z"/><path class="x" d="m545.2 308.2c0 0.4-0.3 0.8-0.6 1l-2.6 1.5c-0.3 0.2-0.6 0.1-0.6-0.3 0-0.4 0.3-0.9 0.6-1.1l2.6-1.5c0.3-0.2 0.6 0 0.6 0.4z"/><path class="P" d="m602.1 612.3v-54.6l103.2 59.7v54.5z"/><path class="Q" d="m649.3 585l-47.2 27.3v-54.3l0.3-0.1z"/><path class="R" d="m602.1 693.5v-54.5l103.2 59.6v54.6z"/><path class="S" d="m649.3 666.2l-47.2 27.3v-54.2l0.3-0.2z"/><path class="T" d="m602.1 774.7v-54.5l103.2 59.7v54.5z"/><path class="U" d="m649.3 747.5l-47.2 27.2v-54.2l0.3-0.2z"/><path class="V" d="m939.9 306.7l-74.4-43 0.1-44 74.4 43z"/><path class="V" d="m940.8 328.5l-46.1-26.6v-16.3l46.2 26.6z"/><path class="V" d="m928.6 240.7l-14.2-8.2v-16.3l14.2 8.2z"/><path fill-rule="evenodd" class="V" d="m901.2 235.3l-80.1-46.2 0.2-47.7 80 46.2zm-5-12.7c0 0-4.4-19.4-12.1-23.8-6.2-3.6-8.9 5.5-12.7 3.3-3.9-2.2-3.9-13.3-7.5-15.4-3.7-2.2-4 8-9.9 4.6-5.9-3.4-7.4-20.6-15-24.9-7.5-4.3-12.7 15.8-12.7 15.8z"/><path class="W" d="m853.9 191.3c5.9 3.4 6.3-6.7 9.9-4.6 3.7 2.1 3.7 13.2 7.5 15.4 3.8 2.2 6.5-6.9 12.8-3.3 7.6 4.4 12.1 23.8 12.1 23.8l-70-40.4c0 0 5.3-20.1 12.8-15.8 7.5 4.4 9 21.5 14.9 24.9z"/><path fill-rule="evenodd" class="V" d="m859.9 250c-0.1 11.6-8.3 16.3-18.3 10.5-10.1-5.8-18.2-19.9-18.2-31.5 0-11.6 8.2-16.2 18.3-10.4 10.1 5.8 18.2 19.9 18.2 31.4zm-17.1-5.9l5.8-0.5-5.8-7.2-5.8-7.2v7.7 7.7z"/><path class="X" d="m842.8 236.4l5.8 7.2-5.8 0.5-5.8 0.5v-7.7-7.7z"/><path fill-rule="evenodd" class="V" d="m850.3 292.7l-11.3-19.6-17.3 9.9-8.5-14.8-8.5 4.8v5.1l0.1-33.2 45.6 26.3zm-24.3-21.2c0-2.6-1.9-5.7-4.1-7.1-2.3-1.3-4.1-0.2-4.1 2.4 0 2.6 1.8 5.7 4.1 7 2.2 1.3 4.1 0.3 4.1-2.3z"/><path class="W" d="m850.3 292.7v11.7l-45.6-26.3v-5.1l8.5-4.8 8.5 14.8 17.3-9.9z"/><path class="W" d="m826 271.5c0 2.6-1.8 3.6-4.1 2.3-2.3-1.3-4.1-4.5-4.1-7 0-2.6 1.9-3.7 4.1-2.4 2.3 1.3 4.1 4.5 4.1 7.1z"/><path class="Y" d="m352 418.8l-73.1 42.4-73.4-42.4 73.4-42.5z"/><path class="Z" d="m352 418.8v385.7l-73.1 42.4v-385.7z"/><path class="a0" d="m278.9 461.2v385.7l-73.4-42.4v-385.7z"/><path class="u" d="m278.9 468.5l73.1-42.4v1.7l-73.1 42.4z"/><path class="v" d="m205.5 426.1l73.4 42.4v1.7l-73.4-42.4z"/><path class="a1" d="m345.8 241.7l-25.1 177.1-41.9 24.3-42.1-24.3-25-177.1z"/><path class="x" d="m320.7 418.8l-41.9 24.3-42.1-24.3 42.1-24.4z"/><path class="E" d="m329.4 297.8v11.8q-1.3 0.9-2.7 1.7-0.1 0.1-0.3 0.2-0.2 0.1-0.5 0.3-1 0.6-2 1.1-0.4 0.3-0.9 0.6-1.1 0.6-2.2 1.2-0.3 0.2-0.6 0.3-1.5 0.8-3 1.5-0.3 0.2-0.7 0.4-1.1 0.5-2.3 1-0.5 0.3-1 0.5-1.1 0.5-2.3 1-0.4 0.2-0.9 0.4-1.5 0.6-3.1 1.2-0.2 0.1-0.4 0.2-1.4 0.5-2.9 1-0.5 0.2-1 0.4-1.2 0.4-2.4 0.8-0.3 0.1-0.6 0.2-0.2 0.1-0.4 0.1-1.9 0.6-3.8 1.2-0.2 0-0.4 0.1-1.7 0.5-3.4 0.9-0.6 0.2-1.1 0.3-1.8 0.4-3.7 0.9-0.1 0-0.2 0-2 0.4-3.9 0.8-0.3 0-0.5 0.1-0.3 0-0.5 0.1-2.3 0.4-4.6 0.7-0.2 0-0.3 0-2.2 0.3-4.5 0.6-0.2 0-0.5 0-0.2 0-0.4 0.1-1.8 0.1-3.7 0.3-0.1 0-0.1 0-1.8 0.1-3.7 0.2-0.2 0-0.4 0-0.4 0-0.9 0-1.1 0-2.2 0-0.7 0-1.4 0-1.1 0-2.1 0-0.4 0-0.8 0-0.4 0-0.7 0-0.9 0-1.9-0.1-0.7 0-1.5-0.1-0.9 0-1.9-0.1-0.5 0-1-0.1-0.3 0-0.5 0-0.9-0.1-1.9-0.2-0.7-0.1-1.5-0.1-1-0.2-1.9-0.3-0.6-0.1-1.2-0.1-0.2-0.1-0.3-0.1-1.2-0.2-2.3-0.3-0.6-0.1-1.2-0.2-1.5-0.3-2.9-0.6-0.3-0.1-0.6-0.1 0 0-0.1 0c-3-4.8-4.4-9.7-4.3-14.4v-11.8c0 4.7 1.3 9.6 4.4 14.4q0.3 0 0.6 0.1 1.5 0.3 2.9 0.6 0.6 0.1 1.3 0.2 1.1 0.2 2.2 0.3 0.8 0.1 1.5 0.2 1 0.1 1.9 0.3 0.8 0 1.6 0.1 0.9 0.1 1.8 0.2 0.8 0.1 1.6 0.1 0.9 0.1 1.8 0.1 0.8 0.1 1.6 0.1 0.9 0.1 1.8 0.1 0.8 0 1.5 0 1.1 0.1 2.1 0.1 0.8 0 1.5-0.1 1 0 2.1 0 0.7 0 1.3 0 1.9-0.1 3.7-0.2 0.1 0 0.1 0 1.9-0.2 3.8-0.3 0.4-0.1 0.9-0.1 2.2-0.3 4.4-0.6 0.2 0 0.3 0 2.3-0.3 4.6-0.7 0.5-0.1 1-0.2 2-0.4 3.9-0.8 0.1 0 0.2 0 1.9-0.4 3.8-0.9 0.5-0.1 1-0.3 1.7-0.4 3.5-0.9 0.2-0.1 0.4-0.1 1.8-0.5 3.7-1.1 0.5-0.2 1-0.4 1.2-0.4 2.4-0.8 0.5-0.2 1-0.3 1.5-0.6 2.9-1.1 0.2-0.1 0.4-0.2 1.6-0.6 3.2-1.2 0.4-0.2 0.9-0.4 1.1-0.5 2.2-1 0.5-0.2 1-0.5 1.2-0.5 2.3-1 0.4-0.2 0.8-0.4 1.5-0.7 2.9-1.5 0.3-0.1 0.6-0.3 1.1-0.6 2.3-1.2 0.4-0.3 0.9-0.6 1-0.5 1.9-1.1 0.4-0.2 0.9-0.5 1.3-0.8 2.6-1.7z"/><path class="M" d="m329.4 297.8c-23.6 15.3-59.1 25.4-94.6 18-12.9-20.6 4.3-41.2 30.6-54.9l40.6 13.5z"/><path class="D" d="m322.3 297.4c-11.3 6.8-24.2 11.9-37.7 14.8-15.4 3.3-30.6 3.6-45.3 0.9-4.6-8.4-4.1-17.2 1.5-26.2 5-7.8 13.7-15.3 25.5-21.9l35.5 11.8z"/><path class="K" d="m293.9 293.4v5h-35.3l-0.1-13.4h8.7v8.4z"/><path class="a2" d="m250.9 713.9l-20.5-11.9v-225.9l20.5 11.9z"/><path class="a3" d="m250.9 690.2v23.7l-20.5-11.9z"/><path class="a4" d="m352 418.8v385.7l-73.1 42.4-73.4-42.4v-385.7l73.4 42.4z"/><path class="a5" d="m1094 241.9l-38.7 22.4-38.8-22.4 38.8-22.4z"/><path class="a6" d="m1094 241.9v341.9l-38.7 22.5v-342z"/><path class="a7" d="m1055.3 264.3v342l-38.8-22.5v-341.9z"/><path class="u" d="m1055.3 268.2l38.7-22.4v0.9l-38.7 22.4z"/><path class="v" d="m1016.5 245.8l38.8 22.4v0.9l-38.8-22.4z"/><path class="a8" d="m1090.7 148.2l-13.3 93.7-22.1 12.9-22.3-12.9-13.3-93.7z"/><path class="x" d="m1077.4 241.9l-22.1 12.9-22.3-12.9 22.3-12.9z"/><path class="E" d="m1082 177.9v6.3q-0.7 0.4-1.4 0.9-0.1 0-0.2 0-0.1 0.1-0.2 0.2-0.6 0.3-1.1 0.6-0.2 0.2-0.5 0.3-0.5 0.3-1.2 0.6-0.1 0.1-0.3 0.2-0.7 0.4-1.5 0.8-0.2 0.1-0.4 0.2-0.6 0.3-1.2 0.6-0.3 0.1-0.6 0.2-0.5 0.3-1.1 0.5-0.3 0.1-0.5 0.2-0.9 0.4-1.7 0.7-0.1 0-0.2 0.1-0.8 0.3-1.5 0.5-0.3 0.1-0.6 0.2-0.6 0.3-1.2 0.5-0.2 0-0.4 0.1-0.1 0-0.2 0-1 0.4-2 0.6-0.1 0.1-0.2 0.1-0.9 0.3-1.8 0.5-0.3 0.1-0.5 0.1-1 0.3-2 0.5-0.1 0-0.1 0-1.1 0.2-2.1 0.4-0.1 0-0.3 0.1-0.1 0-0.2 0-1.2 0.2-2.4 0.4-0.1 0-0.2 0-1.2 0.2-2.4 0.3-0.1 0-0.3 0-0.1 0-0.1 0.1-1 0.1-2 0.1-0.1 0-0.1 0-0.9 0.1-1.9 0.1-0.1 0-0.2 0-0.3 0-0.5 0-0.6 0.1-1.2 0.1-0.3 0-0.7 0-0.6 0-1.1 0-0.3 0-0.5 0-0.1-0.1-0.3-0.1-0.5 0-1 0-0.4 0-0.8 0-0.5-0.1-1-0.1-0.3 0-0.6 0-0.1-0.1-0.2-0.1-0.5 0-1-0.1-0.4 0-0.8-0.1-0.5 0-1-0.1-0.3 0-0.7-0.1 0 0-0.1 0-0.6-0.1-1.2-0.2-0.4 0-0.7-0.1-0.7-0.1-1.5-0.3-0.2 0-0.3 0 0 0-0.1 0c-1.6-2.6-2.3-5.1-2.3-7.6v-6.3c0 2.5 0.8 5.1 2.4 7.6q0.1 0.1 0.3 0.1 0.8 0.1 1.5 0.3 0.4 0 0.7 0.1 0.6 0.1 1.2 0.2 0.4 0 0.8 0.1 0.5 0.1 1 0.1 0.4 0.1 0.8 0.1 0.5 0 1 0.1 0.4 0 0.8 0.1 0.5 0 1 0 0.4 0 0.8 0.1 0.5 0 1 0 0.4 0 0.8 0 0.5 0 1.1 0 0.4 0 0.8 0 0.5 0 1.1 0 0.3 0 0.7 0 1 0 1.9-0.1 0.1 0 0.1 0 1-0.1 2-0.2 0.2 0 0.4 0 1.2-0.2 2.4-0.3 0.1 0 0.2 0 1.2-0.2 2.4-0.4 0.3-0.1 0.5-0.1 1.1-0.2 2.1-0.4 0.1 0 0.1-0.1 1-0.2 2-0.4 0.2-0.1 0.5-0.1 0.9-0.3 1.9-0.5 0.1-0.1 0.2-0.1 1-0.3 1.9-0.6 0.3-0.1 0.6-0.2 0.6-0.2 1.2-0.4 0.3-0.1 0.6-0.2 0.8-0.3 1.5-0.6 0.1 0 0.2 0 0.9-0.4 1.7-0.7 0.2-0.1 0.5-0.2 0.6-0.3 1.2-0.5 0.2-0.2 0.5-0.3 0.6-0.3 1.2-0.5 0.2-0.1 0.4-0.2 0.8-0.4 1.6-0.8 0.1-0.1 0.3-0.2 0.6-0.3 1.2-0.6 0.2-0.2 0.4-0.3 0.6-0.3 1.1-0.6 0.2-0.2 0.4-0.3 0.7-0.4 1.4-0.9z"/><path class="M" d="m1082 177.9c-12.5 8.1-31.2 13.4-50 9.5-6.9-10.9 2.2-21.8 16.2-29l21.4 7.1z"/><path class="D" d="m1078.3 177.7c-6 3.6-12.9 6.3-20 7.8-8.1 1.8-16.2 1.9-23.9 0.5-2.5-4.5-2.2-9.1 0.8-13.8 2.6-4.2 7.2-8.2 13.4-11.6l18.8 6.2z"/><path class="K" d="m1063.2 175.6l0.1 2.6h-18.8v-7.1h4.6v4.5z"/><path class="a9" d="m1094 241.9v341.9l-38.7 22.5-38.8-22.5v-341.9l15.2-8.8-12-84.9h71l-12 84.8z"/><path class="aa" d="m1357 346.4l-159.6 92.6-160.3-92.6 160.3-92.7z"/><path class="ab" d="m1357 346.4v434l-159.6 92.6v-434z"/><path class="ac" d="m1197.4 439v434l-160.3-92.6v-434z"/><path class="u" d="m1197.4 455l159.6-92.7v2.4l-159.6 92.7z"/><path class="v" d="m1037.1 362.3l160.3 92.7v2.4l-160.3-92.7z"/><path class="ad" d="m1092.6 649.4l-20.5-11.9v-225.9l20.5 11.8z"/><path class="ae" d="m1092.6 625.6v23.8l-20.5-11.9z"/><path class="af" d="m1127.9 669.5l-20.6-11.9v-225.9l20.6 11.9z"/><path class="ag" d="m1127.9 645.7v23.8l-20.6-11.9z"/><path class="ah" d="m1308.1 53l-41.5 293.2-69.4 40.3-69.7-40.3-41.4-293.2z"/><path class="x" d="m1266.6 346.2l-69.4 40.3-69.7-40.3 69.7-40.3z"/><path class="ai" d="m1130.9 608.7l-159.6 92.6-160.3-92.6 160.3-92.7z"/><path class="aj" d="m1130.9 608.7v229.1l-159.6 92.7v-229.2z"/><path class="ak" d="m971.3 701.3v229.2l-160.3-92.7v-229.1z"/><path class="u" d="m971.3 717.3l159.6-92.7v2.4l-159.6 92.7z"/><path class="v" d="m811 624.6l160.3 92.7v2.4l-160.3-92.7z"/><path class="al" d="m1048.6 584.2v5.9q0 0.1 0 0.1-0.1 0.1-0.1 0.3 0 0.1 0 0.3 0 0.1 0 0.1 0 0.1-0.1 0.2 0 0.2-0.1 0.4 0 0 0 0-0.1 0.1-0.1 0.2-0.1 0.2-0.2 0.4 0 0.1 0 0.1-0.1 0.1-0.1 0.2-0.2 0.2-0.3 0.4 0 0-0.1 0.1 0 0-0.1 0.1-0.2 0.3-0.5 0.5 0 0.1-0.1 0.2 0 0-0.1 0-0.1 0.2-0.3 0.3-0.2 0.1-0.3 0.3-0.2 0.1-0.4 0.2-0.2 0.1-0.3 0.2-0.1 0.1-0.2 0.1l-97.4 56.6c-4.5 2.6-11.8 2.6-16.3 0l-44.9-25.9c-2.3-1.3-3.4-3-3.4-4.7v-6c0 1.7 1.2 3.4 3.4 4.8l44.9 25.9c4.5 2.6 11.8 2.6 16.3 0l97.4-56.6q0.3-0.2 0.5-0.3 0.2-0.2 0.4-0.3 0.1-0.1 0.3-0.3 0.2-0.1 0.4-0.2 0.1-0.1 0.1-0.2 0.3-0.3 0.5-0.6 0.1-0.1 0.2-0.2 0.2-0.2 0.3-0.4 0.1-0.1 0.1-0.2 0.1-0.2 0.2-0.4 0.1-0.1 0.1-0.3 0.1-0.2 0.1-0.3 0.1-0.2 0.1-0.3 0-0.2 0-0.4 0.1-0.2 0.1-0.3z"/><path fill-rule="evenodd" class="am" d="m1045.2 579.4c4.5 2.6 4.5 6.9 0 9.5l-97.4 56.6c-4.5 2.6-11.8 2.6-16.3 0l-44.9-25.9c-4.5-2.6-4.5-6.9 0-9.5l97.4-56.6c4.5-2.6 11.8-2.6 16.3 0zm-99.7 64.7l97.4-56.6c3.2-1.9 3.2-4.9 0-6.7l-4.1-2.4-6.1 0.2-31-17.9 0.3-3.5-4-2.4c-3.3-1.8-8.5-1.8-11.7 0l-97.4 56.6c-3.2 1.9-3.2 4.9 0.1 6.8l44.8 25.9c3.3 1.9 8.5 1.9 11.7 0z"/><path class="an" d="m1042.9 580.8c3.2 1.8 3.2 4.9 0 6.7l-97.4 56.6c-3.2 1.9-8.4 1.9-11.7 0l-44.9-25.9c-3.2-1.9-3.2-4.9 0-6.7l97.4-56.6c3.2-1.9 8.4-1.9 11.7 0l4 2.3-0.3 3.5 31 17.9 6.1-0.2z"/><path class="an" d="m1042.9 580.8c3.2 1.8 3.2 4.9 0 6.7l-97.4 56.6c-3.2 1.9-8.4 1.9-11.7 0l-44.9-25.9c-3.2-1.9-3.2-4.9 0-6.7l97.4-56.6c3.2-1.9 8.4-1.9 11.7 0l4 2.3-0.3 3.5 31 17.9 6.1-0.2z"/><g style="opacity:.3;mix-blend-mode:multiply"><path class="H" d="m920.4 573.9c5.6 3.3 5.6 8.5 0 11.8-5.6 3.3-14.7 3.3-20.3 0-5.7-3.2-5.7-8.5-0.1-11.8 5.6-3.2 14.7-3.2 20.4 0z"/></g><path class="I" d="m904.6 576.4c0 0 1.6 3.6 3.3 4.9 1.6 1.4 2.1 2.2 1.3 2.8-0.8 0.7-2.5 0.3-4.5-0.8-2-1-4.1-3.1-4.1-3.1-0.1-0.4 0-3 0.2-3.4 0.1-0.3 0.9-0.4 0.9-0.4 0 0 2.9 0 2.9 0z"/><path class="I" d="m915.1 572.2c0 0 1.6 3.6 3.3 4.9 1.6 1.3 2.1 2.1 1.3 2.8-0.7 0.7-2.5 0.2-4.5-0.8-2-1-4.1-3.1-4.1-3.1 0-0.4 0.1-3.1 0.2-3.4 0.2-0.3 1-0.4 1-0.4 0 0 2.8 0 2.8 0z"/><path class="J" d="m919.8 511.9c0.4-0.1 1.2 19.6 1.3 20.4 0.5 2.6 0.4 5.9 0.3 6-0.2 0.2-1.2 0.5-1.6 0.7-0.4 0.1-1-0.2-1.1-0.3-0.1 0-1 0.1-1.1-0.1-0.1-0.2-0.1-1.2-0.1-1.2 0 0-0.5-0.4-0.5-0.8 0-0.5 0.9-1.8 1-2 0-0.2 0.1-1.3 0.1-1.3 0 0 0.8-21.1 1.7-21.4z"/><path class="L" d="m916.1 517.3c-0.4-1.9-0.6-3.6-0.6-3.6l0.7-11.1c1.9 0.1 2.5 2.6 3.4 5.9 0.5 1.6 1 3.8 1.4 5.8-1.6 1.1-3.2 2.2-4.9 3z"/><path class="I" d="m918.7 532.4l-2.6 40.1c-2.3 2.3-5.2 0.6-5.2 0.6 0 0-0.6-33.9-0.7-33.1-0.1 0.9-4.8 37.1-4.8 37.1-2.7 1.6-5 0.1-5 0.1l0.1-41.9z"/><path class="L" d="m912 502.4c0 0 2.9-0.2 4.2 0.2 0 0 2.3 4 2.9 9.8 0.6 5.8 0 19.5 0 19.5 0 0-1.6 2.5-7.6 4.1-7.4 1.9-11-0.7-11-0.7l-1.7-27.9c2.8-2.3 5.9-3.4 5.9-3.4z"/><path class="I" d="m913 487.2c1 0.4 1.9 1.1 2.4 2 0.7 1.1 0.5 2.2 0.3 3.4-0.1 0.9 0.1 2.1-0.6 2.8-0.5 0.5-1.4 0.6-2 0.9q-3.3 1.3-6.5 2.6c0 0-0.8 0.9-1.9-1.6-0.8-2-1.6-4.1-1.3-6.3 0.4-2.8 2.7-4.1 5.3-4.4 1.4-0.1 2.5-0.1 3.8 0.4q0.2 0 0.5 0.2z"/><path class="J" d="m905.9 502.6l-0.2-5.6c0 0-1.4-0.1-1.1-1.6 0.2-1.6 1.7-0.6 1.9-0.1 0 0 0.3-5.3 3.1-5.8 2.9-0.5 5.6 0.1 5.7 1.5 0 1.3 0.1 6.1 0 7.9-0.2 1.8-1.6 2.5-4.2 2.4l0.2 2.9c0 0-1.3 0.9-4.9 0.1z"/><path class="L" d="m911.2 501.9c0 0 0.5 0 0.7 0.1 0.1 0.1 1.2 1.1 1.2 2.3 0 1.1-0.4 2.4-0.4 2.4l-2.4-2.1-1.4 2.8c0 0-0.9-0.2-2.2-1.1-1.2-0.9-2-2.3-2-2.3 0.4-1.1 0.7-1.7 0.7-1.7 0.1-0.2 0.5-0.3 0.5-0.3 0 0 2.5 2.2 4.4 2.3 0 0 0.7-0.3 0.9-2.4z"/><path class="J" d="m900.5 537.2c0 0 0.3 1 0.4 1.2 0 0.2 1.2 1.4 1.3 1.8 0.1 0.4-0.3 0.9-0.3 0.9 0 0 0.2 1 0.2 1.2-0.1 0.2-1 0.3-1.1 0.3-0.1 0.1-0.6 0.6-1 0.5-0.4-0.1-1.5-0.2-1.7-0.3-0.2-0.1-0.9-3.3-1-5.9 0-1 0.3-20.4 0.3-20.4 0.3 0.1 4.3 1.6 4.3 1.6z"/><path class="L" d="m896.9 518.2c0.2-4 0.5-10 1.9-10.8 3.3-2 3.3 4.2 3.4 6.4 0.1 0.6 0 3.3-0.1 5.7-1.4 0-3.7-0.3-5.2-1.3z"/><path class="I" d="m913.7 492.3c-0.1 1-1.1 0.1-1.4-0.1-0.8-0.2-1.2 0.5-1.9 0.6-1.6 0.3-2.7-1.9-2.7-3.3 0.2-2.6 4.5-1.8 6-1.1 0.6 0.3 1.2 0.7 1.6 1.3 0.3 0.6 0.4 1.4 0.1 2-0.3 0.6-1.1 0.8-1.7 0.6z"/><path class="I" d="m906.3 490.4c0.2-0.5 0.7-1.1 1.3-1.1 0.6 0.1 1 0.7 1.1 1.3 0.3 1.5-0.1 3.1-1.1 4.2 0 0.7 0 1.4 0 2.1q-0.3 0-0.5 0c-0.2-1.1-0.7-2-1.5-2.7-0.1-1.3 0.1-2.6 0.7-3.8z"/><path class="ao" d="m1069.9 410.9c-8.1 64.5-24.6 173.3-24.6 173.3 0 1.2-0.8 2.4-2.4 3.3l-97.4 56.6c-3.2 1.9-8.4 1.9-11.7 0l-44.9-25.9c-1.3-0.8-2.1-1.8-2.3-2.8 0 0-28.6-177.4-29-204.5z"/><path fill-rule="evenodd" class="O" d="m1025.4 482.2l0.3 92.5c0 2.1-1.5 4.6-3.2 5.6l-66.1 38.1c-1.8 1.1-3.3 0.2-3.3-1.8l-0.2-92.6c0-2 1.4-4.5 3.2-5.5l66.1-38.2c1.8-1 3.2-0.2 3.2 1.9zm-52.7 112.4c0.6-0.3 1.1-1.2 1.1-1.9 0-0.7-0.5-1-1.2-0.7l-9.2 5.4c-0.7 0.4-1.2 1.2-1.2 1.9 0 0.8 0.5 1.1 1.2 0.7zm13-13c0.6-0.4 1.1-1.2 1.1-2 0-0.7-0.5-1-1.1-0.6l-22.3 12.8c-0.7 0.4-1.2 1.3-1.2 2 0 0.7 0.5 1 1.2 0.7zm11.3-6.5c0.6-0.4 1.1-1.3 1.1-2 0-0.7-0.5-1-1.2-0.7l-6.8 4c-0.6 0.4-1.1 1.2-1.1 2 0 0.7 0.5 1 1.1 0.6zm19.1 0v-19.1l-13.4 7.8v19zm-45.9 10c0.7-0.4 1.2-1.2 1.2-2 0-0.7-0.6-1-1.2-0.6l-6.8 4c-0.7 0.3-1.2 1.2-1.2 1.9 0 0.7 0.5 1 1.2 0.7zm26.7-15.5c0.6-0.3 1.1-1.2 1.1-1.9 0-0.7-0.5-1-1.1-0.7l-22.3 12.9c-0.7 0.4-1.2 1.2-1.2 2 0 0.7 0.5 1 1.2 0.6zm-23 2.3c0.6-0.4 1.1-1.3 1.1-2 0-0.7-0.5-1-1.1-0.6l-10.6 6.1c-0.7 0.4-1.2 1.2-1.2 2 0 0.7 0.5 1 1.2 0.6zm30.9-23.4c0.6-0.3 1.1-1.2 1.1-1.9 0-0.7-0.5-1-1.1-0.7l-41.6 24c-0.6 0.4-1.1 1.3-1.1 2 0 0.7 0.5 1 1.1 0.6zm10-5.7c0.6-0.4 1.1-1.3 1.1-2 0-0.7-0.5-1-1.1-0.6l-5.6 3.2c-0.6 0.4-1.1 1.2-1.1 1.9 0 0.8 0.5 1.1 1.1 0.7zm-19 5.5c0.7-0.4 1.2-1.3 1.2-2 0-0.7-0.5-1-1.2-0.7l-32.6 18.9c-0.6 0.3-1.1 1.2-1.1 1.9 0 0.7 0.5 1 1.2 0.7zm18.9-11c0.7-0.3 1.2-1.2 1.2-1.9 0-0.8-0.5-1.1-1.2-0.7l-14 8.1c-0.6 0.3-1.1 1.2-1.1 1.9 0 0.8 0.5 1.1 1.1 0.7zm0-5.5c0.6-0.4 1.1-1.2 1.1-2 0-0.7-0.5-1-1.1-0.6l-51.6 29.8c-0.6 0.3-1.1 1.2-1.1 1.9 0 0.7 0.5 1 1.1 0.7zm1.2-9.1l-0.1-28.3-53.4 30.8 0.1 28.3zm-19 63.5c0.7-0.4 1.2-1.3 1.2-2 0-0.7-0.6-1-1.2-0.7l-5.6 3.3c-0.6 0.3-1.1 1.2-1.1 1.9 0 0.7 0.5 1 1.2 0.7z"/><path class="x" d="m1015.9 522.7l-53.3 30.8-0.1-28.3 53.4-30.8z"/><path class="x" d="m1016 529.8c0 0.7-0.5 1.6-1.2 1.9l-51.5 29.8c-0.7 0.4-1.2 0.1-1.2-0.6 0-0.7 0.5-1.6 1.2-2l51.5-29.8c0.6-0.3 1.2 0 1.2 0.7z"/><path class="x" d="m997 546.2c0 0.8-0.5 1.6-1.1 2l-32.6 18.8c-0.7 0.4-1.2 0.1-1.2-0.6 0-0.8 0.5-1.6 1.2-2l32.6-18.8c0.6-0.4 1.1-0.1 1.1 0.6z"/><path class="x" d="m1016 535.3c0 0.7-0.5 1.6-1.2 2l-14 8c-0.6 0.4-1.1 0.1-1.1-0.6 0-0.7 0.5-1.6 1.1-2l14-8.1c0.7-0.3 1.2 0 1.2 0.7z"/><path class="x" d="m1006 546.5c0 0.8-0.5 1.6-1.1 2l-41.6 24c-0.6 0.4-1.1 0.1-1.1-0.6 0-0.8 0.5-1.6 1.1-2l41.6-24c0.6-0.4 1.1-0.1 1.1 0.6z"/><path class="x" d="m1016 540.8c0 0.7-0.5 1.6-1.1 1.9l-5.6 3.3c-0.6 0.3-1.2 0-1.2-0.7 0-0.7 0.6-1.6 1.2-1.9l5.5-3.3c0.7-0.3 1.2 0 1.2 0.7z"/><path class="x" d="m975.1 569.9c0 0.7-0.5 1.6-1.1 2l-10.7 6.1c-0.6 0.4-1.1 0.1-1.1-0.6 0-0.8 0.5-1.6 1.1-2l10.6-6.1c0.7-0.4 1.2-0.1 1.2 0.6z"/><path class="x" d="m998.1 573.2c0 0.7-0.5 1.6-1.2 1.9l-6.8 4c-0.7 0.3-1.2 0.1-1.2-0.7 0-0.7 0.5-1.6 1.2-1.9l6.8-4c0.7-0.4 1.2-0.1 1.2 0.7z"/><path class="x" d="m986.8 579.7c0 0.7-0.5 1.6-1.1 1.9l-22.3 12.9c-0.7 0.4-1.2 0.1-1.2-0.6 0-0.8 0.5-1.6 1.2-2l22.3-12.9c0.6-0.3 1.1-0.1 1.1 0.7z"/><path class="x" d="m998.1 584.2c0 0.7-0.5 1.6-1.1 1.9l-5.6 3.2c-0.6 0.4-1.1 0.1-1.1-0.6 0-0.7 0.5-1.6 1.1-2l5.6-3.2c0.6-0.4 1.1-0.1 1.1 0.7z"/><path class="x" d="m973.8 592.7c0 0.7-0.5 1.6-1.1 1.9l-9.3 5.4c-0.7 0.4-1.2 0.1-1.2-0.7 0-0.7 0.5-1.5 1.2-1.9l9.2-5.4c0.7-0.3 1.2 0 1.2 0.7z"/><path class="x" d="m971.3 583.1c0 0.7-0.5 1.6-1.1 1.9l-6.9 4c-0.6 0.4-1.1 0.1-1.1-0.6 0-0.8 0.5-1.6 1.1-2l6.9-4c0.6-0.3 1.1 0 1.1 0.7z"/><path class="x" d="m998.1 567.7c0 0.7-0.5 1.5-1.2 1.9l-22.3 12.9c-0.6 0.4-1.1 0.1-1.1-0.6 0-0.8 0.5-1.6 1.1-2l22.3-12.9c0.6-0.4 1.2-0.1 1.2 0.7z"/><path class="x" d="m1016.1 575.1l-13.5 7.7v-19l13.4-7.8z"/><path class="ap" d="m526.7 403.1v225.9l-102.7 59.6-103.3-59.6v-225.9z"/><path class="aq" d="m526.7 577.3l-102.7 59.7-103.3-59.7 103.3-59.6z"/><path class="ar" d="m526.7 577.3v226l-102.7 59.6v-225.9z"/><path class="as" d="m424 637v225.9l-103.3-59.6v-226z"/><path class="u" d="m424 647.3l102.7-59.7v2.5l-102.7 59.7z"/><path class="v" d="m320.7 587.6l103.3 59.7v2.5l-103.3-59.7z"/><path class="at" d="m467.3 612.3c-6 3.5-15.6 3.5-21.6 0-5.9-3.4-6-9 0-12.5 5.9-3.5 15.6-3.4 21.5 0 6 3.5 6.1 9 0.1 12.5z"/><path class="I" d="m470.3 637.8c0-0.1 1.6 3.4 3.1 4.7 1.6 1.3 2.1 2 1.3 2.7-0.7 0.6-2.4 0.2-4.3-0.8-1.9-1-4-3-4-3 0-0.4 0.1-2.9 0.3-3.2 0.1-0.4 0.9-0.4 0.9-0.4 0 0 2.7 0 2.7 0z"/><path class="I" d="m474.1 630.6c0 0 0.6 3.7 1.8 5.3 1.2 1.7 1.5 2.5 0.6 2.9-0.9 0.5-2.4-0.4-4-1.8-1.6-1.4-3.1-3.9-3.1-3.9 0.1-0.4 0.8-2.8 1.1-3.1 0.2-0.2 0.9-0.1 0.9-0.1 0 0 2.7 0.7 2.7 0.7z"/><path class="I" d="m457.3 601.6c0 0 10.9 11.8 11.4 13.7 0.4 1.8 2.5 22.8 2.5 22.8-3.1 2-5.1 0-5.1 0l-3.2-18.7c0 0-11.8-9-14.7-11-1.9-1.3-2.3-7.1-2.3-10.8z"/><path class="I" d="m466.6 598.4c0 0 18 8.7 18 10.6 0 1.9-9.6 22.3-9.6 22.3-3.5 1.1-4.9-1.3-4.9-1.3l5.3-17.8c0 0-17.9-5.4-19.7-7.2-1.6-1.6-0.9-5.8 0.1-9.3z"/><path class="au" d="m484.6 603.3l-17.5 10.2q0 0 0-0.2l17.6-10.1q0 0.1-0.1 0.1z"/><path class="au" d="m467.1 613l17.6-10.2v0.4l-17.6 10.1z"/><path class="av" d="m454 605.2l17.5-10.2 13.1 7.6-17.6 10.2z"/><path class="I" d="m480.7 602.1c0.3 0.1 0.3 0.4 0 0.5l-13.2 7.7c-0.2 0.1-0.7 0.1-0.9 0l-5-2.9c-0.3-0.1-0.3-0.4 0-0.5l13.2-7.7c0.2-0.2 0.7-0.2 0.9 0z"/><path class="av" d="m467.8 613.3l5.4-9.6 17.6-10.1-5.5 9.6q0 0 0 0l-17.5 10.2q0 0 0-0.1z"/><path class="av" d="m472.8 602.5l0.2 0.2c0.3 0.3 0.4 0.8 0.2 1l-5.4 9.6c-0.2 0.5-0.8 0.3-0.9 0.2l-12.3-7.1c-0.4-0.2-0.6-0.6-0.6-1v-0.2l13 7.6z"/><path class="av" d="m472.8 602.5l17.6-10.2 0.1 0.2c0.3 0.3 0.4 0.8 0.3 1.1l-17.6 10.1c0.2-0.2 0.1-0.7-0.2-1z"/><path class="I" d="m471.2 599.5c0.1 0.1 0.2 0.2 0 0.2l-4.3 2.6c-0.1 0-0.3 0-0.4 0l-2.2-1.3c-0.1-0.1-0.1-0.2 0-0.2l4.3-2.6c0.1 0 0.3 0 0.4 0z"/><path class="J" d="m464 580.3c0 0 1.9 4.9 2.3 6.3 0.4 1.3 5 9.3 5.2 9.7 0.3 0.4 3.6 3.1 3.6 3.5 0 0.4-0.2 1.1-1.3 1.2-1.1 0.2-3.9-1.9-3.9-1.9 0 0-0.8 1.8-1.1-0.4-0.3-2.2 0.6-1.9-0.1-3 0 0-4.8-3.2-6-7.3-1.1-4.2-0.1-7.6-0.1-7.6z"/><path class="av" d="m462.6 583.1l-1.7-11.7c1.8 0.2 3.7 5.6 4.5 9.7-1.2 1.5-2.8 2-2.8 2z"/><path class="av" d="m456.9 571.2c0 0 2.8-0.2 4 0.2 0 0 2.3 2.1 2.8 7.7 0.6 5.5 0.1 17 0.1 17 0 0-1.6 2.4-7.3 3.9-7.1 1.9-10.6-0.6-10.6-0.6l-1.6-23.4c2.6-2.2 5.6-3.3 5.6-3.3z"/><path class="I" d="m459.8 561.1c0.1 3.3-0.1 3.5-0.1 3.5l-7.9 3.2c0 0-0.8 0.9-1.9-1.5-1-2.5-3.2-7.7 0.5-9 3.6-1.4 7.4-0.5 7.4-0.5 0 0 1.8 0.9 2 4.3z"/><path class="J" d="m451.1 571.4l-0.2-5.4c0 0-1.3-0.1-1.1-1.5 0.2-1.5 1.6-0.5 1.9-0.1 0 0 0.3-5.1 3-5.6 2.7-0.5 5.3 0.1 5.4 1.4 0 1.3 0.1 5.9 0 7.6-0.2 1.7-1.5 2.4-4 2.4l0.2 2.7c0 0-1.3 0.9-4.7 0.1z"/><path class="I" d="m456.1 570.7c0 0 0.5 0 0.7 0.1 0.2 0.1 1.2 1.1 1.2 2.2 0 1.1-0.4 2.3-0.4 2.3l-2.3-2-1.4 2.7c0 0-0.8-0.1-2-1-1.2-1-2-2.3-2-2.3 0.4-1 0.7-1.6 0.7-1.6 0.1-0.2 0.5-0.3 0.5-0.3 0 0 2.4 2.2 4.2 2.3 0 0 0.7-0.3 0.8-2.4z"/><path class="av" d="m440.5 585c1-3.5 2.6-7.7 3.8-9 0 0 2.6 0.6 3.2 3.6 0.4 2.3-1.2 6.7-1.9 8.5-1.7-1-3.4-2.1-5.1-3.1z"/><path class="I" d="m463.2 560.1c-0.1 0.8-0.4 1.6-1 2.1-0.9 0.5-2 0.3-3-0.1-0.9-0.4-1.9-0.9-2.9-0.7-1.7 0.3-1.9 0.2-3.3-0.5 0.5 0.9 0.1 1.8-0.3 2.6-0.2 0.5-0.4 1.2-0.3 1.7q-0.4 0.1-0.7 0.2c-0.7-1.2-1.4-2.6-1.5-3.8-0.1-0.9-0.5-1.7-0.5-2.6 0-0.4 0.1-0.9 0.3-1.3q0.1-0.4 0.3-0.8c0.5-1.3 2.1-2.1 3.5-2 0.6 0 1.1 0.3 1.7 0.4 2.3 0.4 4.9-0.9 6.7 1.3q0.6 0.6 0.8 1.4c0.2 0.7 0.3 1.4 0.2 2.1z"/><path class="J" d="m446.6 588.5l-0.2 1.9 11.2 10.7 2.2 0.4c3.8-0.5 1.4 0.7 1.4 0.7 0 0 2.3 0.2 2.6 1.3 0.3 0.9 0.4 3.3-0.5 3.2-1-0.2-1.9-2-3.8-2-1.9 0.1-4.7-2.3-5.5-3.2-0.9-0.8-11-6.9-12.1-8.1-1.1-1.3 0.2-7.5 0.2-7.5z"/><g style="opacity:.6"><path fill-rule="evenodd" class="M" d="m461.4 452.2l0.2 80.4c0 2.2-1.5 4.9-3.5 6l-75.7 43.7c-2 1.2-3.5 0.3-3.6-1.9l-0.2-80.4c0-2.2 1.6-4.9 3.5-6.1l75.8-43.7c1.9-1.1 3.5-0.2 3.5 2zm-8.5 79c0.3-0.2 0.6-0.6 0.6-1 0-0.4-0.3-0.5-0.6-0.3l-63.9 36.9-0.1-50.1c0-0.4-0.3-0.5-0.6-0.3-0.3 0.2-0.6 0.6-0.6 1l0.2 50.7c0 0.4 0.2 0.5 0.6 0.3zm-51.8 5.6l-7.3 4.2v6.6 10.8l7.3-4.2v-10.8zm13.9 9.4v-18.8-11.7l-7.3 4.2v11.7 18.8zm27.8-16v-25.5l-0.1-15.8-7.3 4.3 0.1 15.7v25.5zm-13.9-18.2l-7.3 4.2v10 16.2l7.3-4.2v-16.2zm-9.2-20.6c0.6-0.3 1.1-1.2 1.1-2 0-0.7-0.5-1-1.1-0.6l-18.7 10.7c-0.6 0.4-1.1 1.3-1.1 2 0 0.8 0.5 1.1 1.1 0.7zm8.3-4.8c0.6-0.3 1.1-1.2 1.1-2 0-0.7-0.5-1-1.1-0.6l-4.3 2.4c-0.7 0.4-1.2 1.3-1.2 2 0 0.8 0.5 1.1 1.2 0.7zm-32.6 19.1v-3.2l-7 4.1v3.1zm19-18.3c0.2-0.4 0.3-0.8 0.3-1.1v-0.3l-0.1-0.2-0.1-0.2-0.1-0.1c-0.2-0.1-0.5-0.1-0.9 0.1-0.3 0.2-0.6 0.5-0.8 0.9l-0.1 0.2-0.1 0.3-0.1 0.3v0.3c0 0.4 0.1 0.6 0.3 0.8q0.4 0.1 0.9-0.1c0.3-0.2 0.6-0.5 0.8-0.9zm-4.3 2.8c0.7-0.3 1.2-1.2 1.2-2 0-0.7-0.5-1-1.2-0.6l-9 5.2c-0.7 0.4-1.2 1.3-1.2 2 0 0.7 0.6 1 1.2 0.7zm17.8-10.3c0.7-0.4 1.2-1.3 1.2-2.1 0-0.7-0.5-1-1.2-0.6l-10.8 6.2c-0.6 0.4-1.1 1.3-1.1 2 0 0.8 0.5 1.1 1.1 0.7zm-32.6 19.1v-3.2l-7 4v3.2z"/><path class="x" d="m388.9 516.7l0.1 50.1 63.9-36.9c0.3-0.2 0.6-0.1 0.6 0.3 0 0.4-0.3 0.8-0.6 1l-64.4 37.2c-0.4 0.2-0.6 0.1-0.6-0.3l-0.2-50.7c0-0.4 0.3-0.8 0.6-1 0.3-0.2 0.6-0.1 0.6 0.3z"/><path class="K" d="m401.2 554.2l-7.3 4.2-0.1-10.8 7.3-4.2z"/><path class="K" d="m415 546.1l-7.2 4.3-0.1-18.9 7.3-4.2z"/><path class="K" d="m428.9 538.1l-7.3 4.2v-16.1l7.3-4.2z"/><path class="K" d="m442.8 530.1l-7.3 4.2v-25.4l7.3-4.2z"/><path class="x" d="m401.1 543.4l-7.3 4.2v-6.6l7.3-4.2z"/><path class="x" d="m415 527.3l-7.3 4.2v-11.6l7.3-4.2z"/><path class="x" d="m428.9 522l-7.3 4.2v-10l7.3-4.2z"/><path class="x" d="m442.8 504.7l-7.3 4.2-0.1-15.8 7.3-4.2z"/><path class="K" d="m395.3 499l-7 4v-3.2l7-4z"/><path class="K" d="m395.3 505.7l-7 4v-3.1l7-4.1z"/><path class="x" d="m411.2 488.2c0 0.7-0.5 1.6-1.2 2l-9 5.2c-0.6 0.4-1.2 0.1-1.2-0.6 0-0.8 0.5-1.7 1.2-2.1l9-5.2c0.7-0.3 1.2 0 1.2 0.7z"/><path class="x" d="m414.3 485.5l0.1 0.1 0.1 0.2 0.1 0.2v0.2c0 0.4-0.1 0.8-0.3 1.2-0.2 0.3-0.5 0.6-0.9 0.8q-0.4 0.3-0.8 0.1c-0.2-0.1-0.3-0.4-0.3-0.7v-0.3l0.1-0.3 0.1-0.3 0.1-0.3c0.2-0.4 0.5-0.7 0.8-0.8 0.3-0.2 0.7-0.3 0.9-0.1z"/><path class="x" d="m429 477.9c0 0.7-0.5 1.6-1.1 2l-10.8 6.2c-0.7 0.4-1.2 0.1-1.2-0.6 0-0.8 0.5-1.7 1.1-2l10.9-6.3c0.6-0.3 1.1 0 1.1 0.7z"/><path class="x" d="m420.8 489.4c0 0.7-0.5 1.6-1.2 2l-18.6 10.7c-0.6 0.4-1.2 0.1-1.2-0.6 0-0.8 0.6-1.7 1.2-2.1l18.6-10.7c0.7-0.4 1.2-0.1 1.2 0.7z"/><path class="x" d="m429 484.6c0 0.7-0.5 1.6-1.1 2l-4.3 2.5c-0.7 0.4-1.2 0.1-1.2-0.7 0-0.7 0.5-1.6 1.2-2l4.3-2.5c0.6-0.3 1.1 0 1.1 0.7z"/></g><path class="aw" d="m222.1 664.4l-16.1 9.3-16.1-9.3 16.1-9.4z"/><path class="ax" d="m222.1 664.4v228.1l-16.1 9.3v-228.1z"/><path class="ay" d="m206 673.7v228.1l-16.1-9.3v-228.1z"/><path class="az" d="m222.1 664.4v228.1l-16.1 9.3-16.1-9.3v-228.1l16.1-9.4z"/></svg>